<svg width="204" height="58" viewBox="0 0 204 58" fill="none" xmlns="http://www.w3.org/2000/svg">
<path d="M27.1721 30.277C27.1297 25.219 31.3117 22.7607 31.4953 22.6477C29.1218 19.2004 25.4484 18.72 24.1627 18.6776C21.0827 18.3527 18.0875 20.5284 16.5193 20.5284C14.9228 20.5284 12.4927 18.72 9.89309 18.7624C6.54467 18.8189 3.39404 20.7545 1.68451 23.778C-1.86171 29.9238 0.780295 38.9659 4.18523 43.9391C5.89476 46.3692 7.87273 49.096 10.4865 48.9971C13.0296 48.8982 13.9903 47.3723 17.0562 47.3723C20.1079 47.3723 20.998 48.9971 23.6541 48.9406C26.395 48.8982 28.1045 46.4964 29.7576 44.038C31.7214 41.2547 32.5126 38.4997 32.5408 38.3584C32.4702 38.3302 27.2286 36.3239 27.1721 30.277" fill="white"/>
<path d="M22.1564 15.4143C23.5268 13.7047 24.4593 11.3736 24.205 9C22.227 9.08477 19.7404 10.3705 18.3134 12.0517C17.056 13.5352 15.9258 15.9512 16.2083 18.2258C18.4406 18.3954 20.7294 17.0956 22.1564 15.4143" fill="white"/>
<path d="M50.8024 15L51.8706 11.9205H56.416L57.4785 15H59.3422L55.1547 3.36364H53.1262L48.9387 15H50.8024ZM52.3819 10.4432L54.0978 5.47727H54.1887L55.9047 10.4432H52.3819ZM67.2583 6.27273H65.4345L63.2299 12.9886H63.139L60.9288 6.27273H59.1049L62.2754 15H64.0936L67.2583 6.27273ZM71.1291 15.1932C72.5723 15.1932 73.3848 14.4602 73.7086 13.8068H73.7768V15H75.4359V9.20455C75.4359 6.66477 73.4359 6.15909 72.0495 6.15909C70.47 6.15909 69.0154 6.79545 68.4473 8.38636L70.0439 8.75C70.2939 8.13068 70.9302 7.53409 72.0723 7.53409C73.1689 7.53409 73.7314 8.10795 73.7314 9.09659V9.13636C73.7314 9.75568 73.095 9.74432 71.5268 9.92614C69.8734 10.1193 68.1802 10.5511 68.1802 12.5341C68.1802 14.25 69.47 15.1932 71.1291 15.1932ZM71.4984 13.8295C70.5382 13.8295 69.845 13.3977 69.845 12.5568C69.845 11.6477 70.6518 11.3239 71.6348 11.1932C72.1859 11.1193 73.4927 10.9716 73.737 10.7273V11.8523C73.737 12.8864 72.9132 13.8295 71.4984 13.8295ZM77.6987 15H79.3975V6.27273H77.6987V15ZM78.5566 4.92614C79.1419 4.92614 79.6305 4.47159 79.6305 3.91477C79.6305 3.35795 79.1419 2.89773 78.5566 2.89773C77.9657 2.89773 77.4828 3.35795 77.4828 3.91477C77.4828 4.47159 77.9657 4.92614 78.5566 4.92614ZM83.3819 3.36364H81.6831V15H83.3819V3.36364ZM88.2072 15.1932C89.6504 15.1932 90.4629 14.4602 90.7868 13.8068H90.8549V15H92.514V9.20455C92.514 6.66477 90.514 6.15909 89.1277 6.15909C87.5481 6.15909 86.0936 6.79545 85.5254 8.38636L87.122 8.75C87.372 8.13068 88.0083 7.53409 89.1504 7.53409C90.247 7.53409 90.8095 8.10795 90.8095 9.09659V9.13636C90.8095 9.75568 90.1731 9.74432 88.6049 9.92614C86.9515 10.1193 85.2583 10.5511 85.2583 12.5341C85.2583 14.25 86.5481 15.1932 88.2072 15.1932ZM88.5765 13.8295C87.6163 13.8295 86.9231 13.3977 86.9231 12.5568C86.9231 11.6477 87.7299 11.3239 88.7129 11.1932C89.264 11.1193 90.5708 10.9716 90.8152 10.7273V11.8523C90.8152 12.8864 89.9913 13.8295 88.5765 13.8295ZM94.9132 15H96.5723V13.642H96.7143C97.0211 14.1989 97.6461 15.1705 99.237 15.1705C101.351 15.1705 102.885 13.4773 102.885 10.6534C102.885 7.82386 101.328 6.15909 99.22 6.15909C97.6007 6.15909 97.0154 7.14773 96.7143 7.6875H96.612V3.36364H94.9132V15ZM96.5779 10.6364C96.5779 8.8125 97.3734 7.60227 98.8564 7.60227C100.396 7.60227 101.169 8.90341 101.169 10.6364C101.169 12.3864 100.373 13.7216 98.8564 13.7216C97.3961 13.7216 96.5779 12.4716 96.5779 10.6364ZM106.491 3.36364H104.792V15H106.491V3.36364ZM112.538 15.1761C114.442 15.1761 115.788 14.2386 116.175 12.8182L114.567 12.5284C114.26 13.3523 113.521 13.7727 112.555 13.7727C111.101 13.7727 110.123 12.8295 110.078 11.1477H116.282V10.5455C116.282 7.39205 114.396 6.15909 112.419 6.15909C109.987 6.15909 108.385 8.01136 108.385 10.6932C108.385 13.4034 109.964 15.1761 112.538 15.1761ZM110.084 9.875C110.152 8.63636 111.05 7.5625 112.43 7.5625C113.748 7.5625 114.612 8.53977 114.618 9.875H110.084ZM126.078 15.1761C128.538 15.1761 130.146 13.375 130.146 10.6761C130.146 7.96023 128.538 6.15909 126.078 6.15909C123.618 6.15909 122.01 7.96023 122.01 10.6761C122.01 13.375 123.618 15.1761 126.078 15.1761ZM126.084 13.75C124.476 13.75 123.726 12.3466 123.726 10.6705C123.726 9 124.476 7.57955 126.084 7.57955C127.68 7.57955 128.43 9 128.43 10.6705C128.43 12.3466 127.68 13.75 126.084 13.75ZM133.741 9.81818C133.741 8.42614 134.594 7.63068 135.775 7.63068C136.929 7.63068 137.628 8.38636 137.628 9.65341V15H139.327V9.44886C139.327 7.28977 138.139 6.15909 136.355 6.15909C135.042 6.15909 134.184 6.76705 133.781 7.69318H133.673V6.27273H132.042V15H133.741V9.81818ZM149.913 6.27273H148.123V4.18182H146.425V6.27273H145.146V7.63636H146.425V12.7898C146.419 14.375 147.629 15.142 148.97 15.1136C149.51 15.108 149.873 15.0057 150.072 14.9318L149.765 13.5284C149.652 13.5511 149.442 13.6023 149.169 13.6023C148.618 13.6023 148.123 13.4205 148.123 12.4375V7.63636H149.913V6.27273ZM153.679 9.81818C153.679 8.42614 154.559 7.63068 155.77 7.63068C156.94 7.63068 157.639 8.375 157.639 9.65341V15H159.338V9.44886C159.338 7.27273 158.145 6.15909 156.349 6.15909C154.991 6.15909 154.173 6.75 153.764 7.69318H153.656V3.36364H151.98V15H153.679V9.81818ZM165.366 15.1761C167.27 15.1761 168.616 14.2386 169.003 12.8182L167.395 12.5284C167.088 13.3523 166.349 13.7727 165.383 13.7727C163.929 13.7727 162.952 12.8295 162.906 11.1477H169.111V10.5455C169.111 7.39205 167.224 6.15909 165.247 6.15909C162.815 6.15909 161.213 8.01136 161.213 10.6932C161.213 13.4034 162.792 15.1761 165.366 15.1761ZM162.912 9.875C162.98 8.63636 163.878 7.5625 165.258 7.5625C166.577 7.5625 167.44 8.53977 167.446 9.875H162.912Z" fill="white"/>
<path d="M53.8251 50L55.7456 44.2614H64.4956L66.4274 50H70.9274L62.7228 26.7273H57.5183L49.3251 50H53.8251ZM56.8819 40.875L60.0297 31.5H60.2115L63.3592 40.875H56.8819ZM73.8109 56.5455H77.9245V47.25H78.095C78.7427 48.5227 80.095 50.3068 83.095 50.3068C87.2086 50.3068 90.2882 47.0455 90.2882 41.2955C90.2882 35.4773 87.1177 32.3182 83.0836 32.3182C80.0041 32.3182 78.72 34.1705 78.095 35.4318H77.8564V32.5455H73.8109V56.5455ZM77.845 41.2727C77.845 37.8864 79.2995 35.6932 81.9473 35.6932C84.6859 35.6932 86.095 38.0227 86.095 41.2727C86.095 44.5455 84.6632 46.9318 81.9473 46.9318C79.3223 46.9318 77.845 44.6591 77.845 41.2727ZM93.8109 56.5455H97.9245V47.25H98.095C98.7427 48.5227 100.095 50.3068 103.095 50.3068C107.209 50.3068 110.288 47.0455 110.288 41.2955C110.288 35.4773 107.118 32.3182 103.084 32.3182C100.004 32.3182 98.72 34.1705 98.095 35.4318H97.8564V32.5455H93.8109V56.5455ZM97.845 41.2727C97.845 37.8864 99.2995 35.6932 101.947 35.6932C104.686 35.6932 106.095 38.0227 106.095 41.2727C106.095 44.5455 104.663 46.9318 101.947 46.9318C99.3223 46.9318 97.845 44.6591 97.845 41.2727ZM134.578 33.125H138.635C138.555 29.1932 135.203 26.4091 130.248 26.4091C125.362 26.4091 121.692 29.1591 121.703 33.2727C121.703 36.6136 124.078 38.5341 127.907 39.5227L130.555 40.2045C133.067 40.8409 134.726 41.625 134.737 43.4318C134.726 45.4205 132.839 46.75 130.089 46.75C127.453 46.75 125.407 45.5682 125.237 43.125H121.089C121.26 47.75 124.703 50.3523 130.123 50.3523C135.703 50.3523 138.942 47.5682 138.953 43.4659C138.942 39.4318 135.612 37.5909 132.112 36.7614L129.93 36.2159C128.021 35.7614 125.953 34.9545 125.976 33.0114C125.987 31.2614 127.555 29.9773 130.192 29.9773C132.703 29.9773 134.362 31.1477 134.578 33.125ZM151.246 32.5455H147.802V28.3636H143.689V32.5455H141.211V35.7273H143.689V45.4318C143.666 48.7159 146.052 50.3295 149.143 50.2386C150.314 50.2045 151.121 49.9773 151.564 49.8295L150.871 46.6136C150.643 46.6705 150.177 46.7727 149.666 46.7727C148.632 46.7727 147.802 46.4091 147.802 44.75V35.7273H151.246V32.5455ZM162.112 50.3409C167.226 50.3409 170.476 46.7386 170.476 41.3409C170.476 35.9318 167.226 32.3182 162.112 32.3182C156.998 32.3182 153.748 35.9318 153.748 41.3409C153.748 46.7386 156.998 50.3409 162.112 50.3409ZM162.135 47.0455C159.305 47.0455 157.919 44.5227 157.919 41.3295C157.919 38.1364 159.305 35.5795 162.135 35.5795C164.919 35.5795 166.305 38.1364 166.305 41.3295C166.305 44.5227 164.919 47.0455 162.135 47.0455ZM173.967 50H178.081V39.7386C178.081 37.5227 179.751 35.9545 182.013 35.9545C182.706 35.9545 183.569 36.0795 183.922 36.1932V32.4091C183.547 32.3409 182.899 32.2955 182.444 32.2955C180.444 32.2955 178.774 33.4318 178.138 35.4545H177.956V32.5455H173.967V50ZM193.663 50.3409C197.731 50.3409 200.527 48.3523 201.254 45.3182L197.413 44.8864C196.856 46.3636 195.493 47.1364 193.72 47.1364C191.061 47.1364 189.3 45.3864 189.265 42.3977H201.425V41.1364C201.425 35.0114 197.743 32.3182 193.447 32.3182C188.447 32.3182 185.186 35.9886 185.186 41.375C185.186 46.8523 188.402 50.3409 193.663 50.3409ZM189.277 39.625C189.402 37.3977 191.05 35.5227 193.504 35.5227C195.868 35.5227 197.459 37.25 197.481 39.625H189.277Z" fill="white"/>
</svg>
