<svg width="72" height="72" viewBox="0 0 72 72" fill="none" xmlns="http://www.w3.org/2000/svg">
<path fill-rule="evenodd" clip-rule="evenodd" d="M36 0C16.1178 0 0 16.1178 0 36C0 55.8823 16.1178 72 36 72C55.8823 72 72 55.8823 72 36C72 16.1178 55.8823 0 36 0ZM20.9874 24.6039C20.9141 22.5059 22.5496 20.5714 24.7598 20.5714H47.4073C49.6175 20.5714 51.2527 22.5062 51.1794 24.6039C51.1091 26.6194 51.2004 29.2301 51.8576 31.3586C52.5172 33.4937 53.629 34.8458 55.4499 35.0198V36.9802C53.6289 37.1537 52.5171 38.5063 51.8576 40.6414C51.2005 42.7702 51.1091 45.3806 51.1794 47.3961C51.2527 49.4941 49.6175 51.4286 47.4073 51.4286H24.7601C22.5495 51.4286 20.9141 49.4938 20.9873 47.3961C21.0576 45.3806 20.9663 42.7702 20.3091 40.6414C19.6497 38.5063 18.5352 37.1542 16.7143 36.9802V35.0198C18.5352 34.8462 19.6497 33.4934 20.3092 31.3586C20.9663 29.2298 21.0577 26.6194 20.9874 24.6039ZM37.2451 44.2067C40.821 44.2067 42.9757 42.4548 42.9757 39.566C42.9757 37.3821 41.4385 35.8009 39.1555 35.5505V35.4597C40.8326 35.1867 42.149 33.6286 42.149 31.8881C42.149 29.4084 40.1921 27.7934 37.2105 27.7934H31.158C30.9839 27.7934 30.8169 27.8625 30.6938 27.9856C30.5707 28.1088 30.5015 28.2758 30.5015 28.4499V43.5502C30.5015 43.7243 30.5707 43.8913 30.6938 44.0144C30.8169 44.1376 30.9839 44.2067 31.158 44.2067H37.2451ZM33.1106 29.8746H36.5814C38.4683 29.8746 39.5395 30.7162 39.5398 32.2405C39.5398 33.867 38.2937 34.777 36.0339 34.777H33.1106V29.8746ZM33.1106 42.1248V36.7222V36.7219H36.5578C39.027 36.7219 40.3083 37.6322 40.3083 39.4065C40.3083 41.1807 39.062 42.1248 36.7091 42.1248H33.1106Z" fill="#7952B3"/>
</svg>
