<svg width="72" height="72" viewBox="0 0 72 72" fill="none" xmlns="http://www.w3.org/2000/svg">
<path fill-rule="evenodd" clip-rule="evenodd" d="M36 0C16.1178 0 0 16.1178 0 36C0 55.8823 16.1178 72 36 72C55.8823 72 72 55.8823 72 36C72 16.1178 55.8823 0 36 0ZM30.582 26.9023C28.731 27.0883 26.8275 27.6868 25.5 28.2418V43.1263C26.8755 42.6013 28.6605 42.0898 30.4305 41.9098C32.07 41.7448 33.8475 41.8543 35.25 42.6493V28.0303C34.269 26.9968 32.577 26.7013 30.582 26.9023ZM41.418 26.9023C39.423 26.7013 37.731 26.9968 36.75 28.0303V42.6493C38.1525 41.8528 39.9285 41.7448 41.5695 41.9113C43.3395 42.0883 45.123 42.6013 46.5 43.1263V28.2418C45.1725 27.6868 43.269 27.0883 41.418 26.9023ZM30.4305 25.4098C32.3805 25.2148 34.5225 25.4038 36 26.6743C37.4775 25.4038 39.6195 25.2133 41.5695 25.4098C43.8405 25.6393 46.1325 26.4178 47.5605 27.0673C47.6915 27.1269 47.8026 27.2229 47.8806 27.344C47.9585 27.465 48 27.6059 48 27.7498V44.2498C48 44.3753 47.9684 44.4988 47.9083 44.6089C47.8482 44.7191 47.7614 44.8124 47.6559 44.8803C47.5504 44.9482 47.4295 44.9886 47.3043 44.9976C47.1792 45.0067 47.0537 44.9843 46.9395 44.9323C45.618 44.3323 43.485 43.6108 41.418 43.4023C39.306 43.1893 37.5345 43.5328 36.585 44.7178C36.5147 44.8054 36.4257 44.8761 36.3244 44.9247C36.2232 44.9733 36.1123 44.9985 36 44.9985C35.8877 44.9985 35.7768 44.9733 35.6756 44.9247C35.5743 44.8761 35.4853 44.8054 35.415 44.7178C34.4655 43.5328 32.694 43.1893 30.5805 43.4023C28.515 43.6108 26.3835 44.3323 25.0605 44.9323C24.9463 44.9843 24.8208 45.0067 24.6957 44.9976C24.5705 44.9886 24.4496 44.9482 24.3441 44.8803C24.2386 44.8124 24.1518 44.7191 24.0917 44.6089C24.0316 44.4988 24 44.3753 24 44.2498V27.7498C24 27.6059 24.0415 27.465 24.1194 27.344C24.1974 27.2229 24.3085 27.1269 24.4395 27.0673C25.8675 26.4178 28.1595 25.6393 30.4305 25.4098Z" fill="#1D4B40"/>
</svg>
