<svg width="237" height="58" viewBox="0 0 237 58" fill="none" xmlns="http://www.w3.org/2000/svg">
<path d="M0.160806 10.8896C0.0652888 11.2252 0 11.5871 0 12.0005V46.0054C0 46.4125 0.0652889 46.7706 0.15708 47.1024L19.2422 29.0213C19.2422 29.0212 0.160806 10.8896 0.160806 10.8896Z" fill="white"/>
<path d="M26.6898 21.964L4.4066 9.5688C3.51823 9.02855 2.64367 8.89162 1.90479 9.08003L21.0704 27.2906C21.0704 27.2906 26.6898 21.964 26.6898 21.964Z" fill="white"/>
<path d="M34.9057 26.5342L28.9582 23.2256L22.8662 28.9958L29.0713 34.8943L34.858 31.7164C37.6828 30.1067 36.6524 27.5156 34.9057 26.5342Z" fill="white"/>
<path d="M1.84814 48.9046C2.59834 49.1144 3.49431 48.9888 4.40531 48.4346L26.7564 36.1626L21.0352 30.7266C21.0352 30.7267 1.84814 48.9046 1.84814 48.9046Z" fill="white"/>
<path d="M61.7691 7.03977H63.5703C63.1782 4.77273 61.2407 3.20455 58.7294 3.20455C55.718 3.20455 53.5191 5.47159 53.5191 9.1875C53.5191 12.8693 55.6555 15.1591 58.8089 15.1591C61.6328 15.1591 63.6498 13.3068 63.6498 10.3693V9.04545H59.076V10.4943H61.951C61.9112 12.3693 60.6725 13.5568 58.8089 13.5568C56.7578 13.5568 55.2634 12.0057 55.2634 9.17614C55.2634 6.35795 56.7691 4.80682 58.7407 4.80682C60.2862 4.80682 61.3316 5.65909 61.7691 7.03977ZM69.5035 15.1761C71.4069 15.1761 72.7535 14.2386 73.1399 12.8182L71.5319 12.5284C71.2251 13.3523 70.4865 13.7727 69.5206 13.7727C68.066 13.7727 67.0887 12.8295 67.0433 11.1477H73.2478V10.5455C73.2478 7.39205 71.3615 6.15909 69.3842 6.15909C66.9524 6.15909 65.3501 8.01136 65.3501 10.6932C65.3501 13.4034 66.9296 15.1761 69.5035 15.1761ZM67.049 9.875C67.1171 8.63636 68.0149 7.5625 69.3956 7.5625C70.7137 7.5625 71.5774 8.53977 71.5831 9.875H67.049ZM79.2066 6.27273H77.4169V4.18182H75.718V6.27273H74.4396V7.63636H75.718V12.7898C75.7123 14.375 76.9225 15.142 78.2635 15.1136C78.8032 15.108 79.1669 15.0057 79.3657 14.9318L79.0589 13.5284C78.9453 13.5511 78.735 13.6023 78.4623 13.6023C77.9112 13.6023 77.4169 13.4205 77.4169 12.4375V7.63636H79.2066V6.27273ZM85.3203 15H87.0191V6.27273H85.3203V15ZM86.1782 4.92614C86.7634 4.92614 87.2521 4.47159 87.2521 3.91477C87.2521 3.35795 86.7634 2.89773 86.1782 2.89773C85.5873 2.89773 85.1044 3.35795 85.1044 3.91477C85.1044 4.47159 85.5873 4.92614 86.1782 4.92614ZM93.3785 6.27273H91.5887V4.18182H89.8899V6.27273H88.6115V7.63636H89.8899V12.7898C89.8842 14.375 91.0944 15.142 92.4353 15.1136C92.9751 15.108 93.3387 15.0057 93.5376 14.9318L93.2308 13.5284C93.1171 13.5511 92.9069 13.6023 92.6342 13.6023C92.0831 13.6023 91.5887 13.4205 91.5887 12.4375V7.63636H93.3785V6.27273ZM103.168 15.1761C105.629 15.1761 107.236 13.375 107.236 10.6761C107.236 7.96023 105.629 6.15909 103.168 6.15909C100.708 6.15909 99.1001 7.96023 99.1001 10.6761C99.1001 13.375 100.708 15.1761 103.168 15.1761ZM103.174 13.75C101.566 13.75 100.816 12.3466 100.816 10.6705C100.816 9 101.566 7.57955 103.174 7.57955C104.771 7.57955 105.521 9 105.521 10.6705C105.521 12.3466 104.771 13.75 103.174 13.75ZM110.832 9.81818C110.832 8.42614 111.684 7.63068 112.866 7.63068C114.019 7.63068 114.718 8.38636 114.718 9.65341V15H116.417V9.44886C116.417 7.28977 115.229 6.15909 113.445 6.15909C112.133 6.15909 111.275 6.76705 110.871 7.69318H110.763V6.27273H109.133V15H110.832V9.81818Z" fill="white"/>
<path d="M70.5021 34.1591H74.7975C74.0816 29.5909 70.1271 26.4091 64.9794 26.4091C58.8885 26.4091 54.3203 30.8864 54.3203 38.3864C54.3203 45.75 58.6839 50.3182 65.1044 50.3182C70.8657 50.3182 74.9907 46.6136 74.9907 40.6136V37.8182H65.5475V41.1136H70.9112C70.843 44.4318 68.6271 46.5341 65.1271 46.5341C61.2294 46.5341 58.5589 43.6136 58.5589 38.3409C58.5589 33.1023 61.2748 30.1932 65.0362 30.1932C67.843 30.1932 69.7521 31.6932 70.5021 34.1591ZM86.4992 50.3409C91.6129 50.3409 94.8629 46.7386 94.8629 41.3409C94.8629 35.9318 91.6129 32.3182 86.4992 32.3182C81.3856 32.3182 78.1356 35.9318 78.1356 41.3409C78.1356 46.7386 81.3856 50.3409 86.4992 50.3409ZM86.522 47.0455C83.6924 47.0455 82.3061 44.5227 82.3061 41.3295C82.3061 38.1364 83.6924 35.5795 86.522 35.5795C89.3061 35.5795 90.6924 38.1364 90.6924 41.3295C90.6924 44.5227 89.3061 47.0455 86.522 47.0455ZM105.968 50.3409C111.082 50.3409 114.332 46.7386 114.332 41.3409C114.332 35.9318 111.082 32.3182 105.968 32.3182C100.854 32.3182 97.6044 35.9318 97.6044 41.3409C97.6044 46.7386 100.854 50.3409 105.968 50.3409ZM105.991 47.0455C103.161 47.0455 101.775 44.5227 101.775 41.3295C101.775 38.1364 103.161 35.5795 105.991 35.5795C108.775 35.5795 110.161 38.1364 110.161 41.3295C110.161 44.5227 108.775 47.0455 105.991 47.0455ZM125.414 56.9091C130.13 56.9091 133.607 54.75 133.607 50.2841V32.5455H129.55V35.4318H129.323C128.698 34.1705 127.391 32.3182 124.312 32.3182C120.278 32.3182 117.107 35.4773 117.107 41.2159C117.107 46.9091 120.278 49.75 124.3 49.75C127.289 49.75 128.687 48.1477 129.323 46.8636H129.528V50.1705C129.528 52.7386 127.823 53.7955 125.482 53.7955C123.005 53.7955 121.914 52.625 121.414 51.6023L117.709 52.5C118.459 54.9432 120.971 56.9091 125.414 56.9091ZM125.448 46.5227C122.732 46.5227 121.3 44.4091 121.3 41.1932C121.3 38.0227 122.709 35.6932 125.448 35.6932C128.096 35.6932 129.55 37.8864 129.55 41.1932C129.55 44.5227 128.073 46.5227 125.448 46.5227ZM141.937 26.7273H137.823V50H141.937V26.7273ZM153.894 50.3409C157.962 50.3409 160.758 48.3523 161.485 45.3182L157.644 44.8864C157.087 46.3636 155.724 47.1364 153.951 47.1364C151.292 47.1364 149.53 45.3864 149.496 42.3977H161.655V41.1364C161.655 35.0114 157.974 32.3182 153.678 32.3182C148.678 32.3182 145.417 35.9886 145.417 41.375C145.417 46.8523 148.633 50.3409 153.894 50.3409ZM149.508 39.625C149.633 37.3977 151.28 35.5227 153.735 35.5227C156.099 35.5227 157.69 37.25 157.712 39.625H149.508ZM173.255 50H177.471V42.1364H181.925C187.3 42.1364 190.187 38.9091 190.187 34.4318C190.187 29.9886 187.334 26.7273 181.982 26.7273H173.255V50ZM177.471 38.6705V30.25H181.334C184.494 30.25 185.891 31.9545 185.891 34.4318C185.891 36.9091 184.494 38.6705 181.357 38.6705H177.471ZM197.78 26.7273H193.667V50H197.78V26.7273ZM207.033 50.3523C209.772 50.3523 211.408 49.0682 212.158 47.6023H212.295V50H216.249V38.3182C216.249 33.7045 212.488 32.3182 209.158 32.3182C205.488 32.3182 202.67 33.9545 201.761 37.1364L205.602 37.6818C206.011 36.4886 207.17 35.4659 209.181 35.4659C211.09 35.4659 212.136 36.4432 212.136 38.1591V38.2273C212.136 39.4091 210.897 39.4659 207.817 39.7955C204.431 40.1591 201.192 41.1705 201.192 45.1023C201.192 48.5341 203.704 50.3523 207.033 50.3523ZM208.102 47.3295C206.386 47.3295 205.158 46.5455 205.158 45.0341C205.158 43.4545 206.533 42.7955 208.374 42.5341C209.454 42.3864 211.613 42.1136 212.147 41.6818V43.7386C212.147 45.6818 210.579 47.3295 208.102 47.3295ZM222.317 56.5455C225.522 56.5455 227.374 54.8977 228.363 52.1136L235.374 32.5682L230.977 32.5455L226.942 45.7273H226.761L222.738 32.5455H218.374L224.704 50.3636L224.352 51.3068C223.59 53.2955 222.386 53.4318 220.59 52.9091L219.636 56.1136C220.192 56.3409 221.192 56.5455 222.317 56.5455Z" fill="white"/>
</svg>
