<svg width="72" height="72" viewBox="0 0 72 72" fill="none" xmlns="http://www.w3.org/2000/svg">
<rect width="72" height="72" rx="36" fill="#F0DB4F"/>
<path d="M54.0417 40.0742C53.6392 37.5647 52.0028 35.4578 47.1565 33.4921C45.4731 32.7184 43.5962 32.1642 43.0368 30.8886C42.8382 30.1462 42.812 29.7279 42.9375 29.2783C43.2982 27.8197 45.0391 27.3649 46.4193 27.7831C47.3081 28.0811 48.1498 28.766 48.6569 29.8586C51.0304 28.3217 51.0252 28.3321 52.6825 27.2761C52.076 26.335 51.7519 25.901 51.3545 25.4985C49.9273 23.904 47.9825 23.0832 44.8718 23.1459C44.3334 23.2139 43.7897 23.287 43.2512 23.355C41.6985 23.7471 40.2189 24.5627 39.3511 25.6554C36.7476 28.6092 37.4899 33.7796 40.6581 35.9075C43.7792 38.2496 48.3641 38.7829 48.9497 40.9734C49.5195 43.6554 46.9788 44.5232 44.4536 44.2148C42.5924 43.8279 41.5574 42.8817 40.4385 41.1616C38.3787 42.3536 38.3787 42.3536 36.2614 43.5718C36.7633 44.6696 37.2913 45.1663 38.133 46.1178C42.1167 50.159 52.0865 49.9604 53.8745 43.8436C53.9476 43.6344 54.4287 42.2333 54.0417 40.0742V40.0742ZM33.4435 23.47H28.2991C28.2991 27.9138 28.2783 32.3263 28.2783 36.7701C28.2783 39.5984 28.4247 42.1915 27.9646 42.9862C27.2118 44.5493 25.2617 44.3559 24.373 44.0526C23.4685 43.6082 23.0085 42.9757 22.4752 42.0817C22.3288 41.8255 22.219 41.6269 22.1824 41.6112C20.7866 42.4634 19.3959 43.3207 18 44.1729C18.6954 45.6002 19.72 46.8392 21.0322 47.6443C22.9927 48.8206 25.6276 49.1813 28.3828 48.5487C30.176 48.0259 31.7235 46.9438 32.5338 45.2969C33.7049 43.1378 33.4539 40.5238 33.4435 37.6327C33.4696 32.917 33.4435 28.2014 33.4435 23.47Z" fill="#323330"/>
</svg>
