<svg width="108" height="24" viewBox="0 0 108 24" fill="none" xmlns="http://www.w3.org/2000/svg">
	<path d="M11.232 23.2C8.88533 23.2 6.86933 22.7307 5.184 21.792C3.52 20.832 2.24 19.488 1.344 17.76C0.448 16.0107 0 13.952 0 11.584C0 9.216 0.448 7.168 1.344 5.44C2.24 3.712 3.52 2.37867 5.184 1.44C6.86933 0.48 8.88533 0 11.232 0C12.7467 0 14.176 0.234667 15.52 0.704C16.4654 1.02897 17.2931 1.4511 18.0032 1.97039C18.5676 2.38313 18.7066 3.14116 18.4404 3.78772C17.9933 4.87343 16.6174 5.19251 15.5739 4.65427C15.2489 4.48664 14.9216 4.34322 14.592 4.224C13.5893 3.84 12.512 3.648 11.36 3.648C9.07733 3.648 7.33867 4.34133 6.144 5.728C4.94933 7.09333 4.352 9.04533 4.352 11.584C4.352 14.1227 4.94933 16.0853 6.144 17.472C7.33867 18.8587 9.07733 19.552 11.36 19.552C12.512 19.552 13.5893 19.3707 14.592 19.008C14.927 18.8797 15.2596 18.7276 15.5898 18.5517C16.6216 18.0021 17.9913 18.3217 18.4364 19.4027C18.7044 20.0536 18.5589 20.8161 17.9875 21.2273C17.2809 21.7359 16.4584 22.1588 15.52 22.496C14.176 22.9653 12.7467 23.2 11.232 23.2Z" fill="white"/>
	<path d="M39.8307 23.2C36.7374 23.2 34.3694 22.4 32.7267 20.8C31.1054 19.1787 30.2948 16.7893 30.2948 13.632V2.32C30.2948 1.21543 31.1902 0.32 32.2948 0.32H32.3908C33.4953 0.32 34.3908 1.21543 34.3908 2.32V13.6C34.3908 15.6267 34.8494 17.152 35.7668 18.176C36.7054 19.1787 38.0601 19.68 39.8307 19.68C43.4361 19.68 45.2388 17.6533 45.2388 13.6V2.32C45.2388 1.21543 46.1342 0.32 47.2388 0.32H47.3027C48.4073 0.32 49.3027 1.21543 49.3027 2.32V13.632C49.3027 16.7893 48.5028 19.1787 46.9028 20.8C45.3028 22.4 42.9454 23.2 39.8307 23.2Z" fill="white"/>
	<path d="M64.0798 22.88C62.9752 22.88 62.0798 21.9846 62.0798 20.88V2.32C62.0798 1.21543 62.9752 0.32 64.0798 0.32H71.9358C74.3038 0.32 76.1384 0.842667 77.4398 1.888C78.7411 2.912 79.3918 4.34133 79.3918 6.176C79.3918 7.392 79.0824 8.43733 78.4638 9.312C77.87 10.1514 77.9716 12.109 78.6538 12.8783C78.7322 12.9666 78.8075 13.0578 78.8798 13.152C79.6051 14.048 79.9678 15.1893 79.9678 16.576C79.9678 18.5813 79.2851 20.1387 77.9198 21.248C76.5758 22.336 74.6984 22.88 72.2878 22.88H64.0798ZM66.0158 7.888C66.0158 8.99257 66.9112 9.888 68.0158 9.888H71.2318C74.0264 9.888 75.4238 8.81067 75.4238 6.656C75.4238 4.50133 74.0264 3.424 71.2318 3.424H68.0158C66.9112 3.424 66.0158 4.31943 66.0158 5.424V7.888ZM66.0158 17.776C66.0158 18.8806 66.9112 19.776 68.0158 19.776H71.7758C74.5918 19.776 75.9998 18.6453 75.9998 16.384C75.9998 14.1227 74.5918 12.992 71.7758 12.992H68.0158C66.9112 12.992 66.0158 13.8874 66.0158 14.992V17.776Z" fill="white"/>
	<path d="M94.111 22.88C93.0064 22.88 92.111 21.9846 92.111 20.88V2.32C92.111 1.21543 93.0064 0.32 94.111 0.32H105.487C106.388 0.32 107.119 1.05067 107.119 1.952C107.119 2.85333 106.388 3.584 105.487 3.584H98.047C96.9424 3.584 96.047 4.47943 96.047 5.584V7.792C96.047 8.89657 96.9424 9.792 98.047 9.792H104.783C105.684 9.792 106.415 10.5227 106.415 11.424C106.415 12.3253 105.684 13.056 104.783 13.056H98.047C96.9424 13.056 96.047 13.9514 96.047 15.056V17.616C96.047 18.7206 96.9424 19.616 98.047 19.616H105.487C106.388 19.616 107.119 20.3467 107.119 21.248C107.119 22.1493 106.388 22.88 105.487 22.88H94.111Z" fill="white"/>
</svg>
