<svg width="111" height="31" viewBox="0 0 111 31" fill="none" xmlns="http://www.w3.org/2000/svg">
<path d="M0.52832 28C0.52832 29.1046 1.42375 30 2.52832 30H17.1505C18.2551 30 19.1505 29.1046 19.1505 28V26.929C19.1505 25.8244 18.2551 24.929 17.1505 24.929H8.67889C7.57432 24.929 6.67889 24.0335 6.67889 22.929V2.90908C6.67889 1.80451 5.78346 0.909081 4.67889 0.909081H2.52832C1.42375 0.909081 0.52832 1.80451 0.52832 2.90908V28Z" fill="white"/>
<path d="M48.8238 15.4545C48.8238 5.93749 42.9147 0.511353 35.2016 0.511353C27.4459 0.511353 21.5795 5.93749 21.5795 15.4545C21.5795 24.929 27.4459 30.3977 35.2016 30.3977C42.9147 30.3977 48.8238 24.9716 48.8238 15.4545ZM42.588 15.4545C42.588 21.6193 39.6618 24.9574 35.2016 24.9574C30.7272 24.9574 27.8153 21.6193 27.8153 15.4545C27.8153 9.28976 30.7272 5.9517 35.2016 5.9517C39.6618 5.9517 42.588 9.28976 42.588 15.4545Z" fill="white"/>
<path d="M72.101 8.91956C72.5321 9.70096 73.2847 10.3125 74.1772 10.3125H76.6241C77.8376 10.3125 78.7847 9.22813 78.3724 8.08682C76.7311 3.54273 72.1675 0.511353 66.4765 0.511353C58.7918 0.511353 52.8685 6.05113 52.8685 15.4829C52.8685 24.6875 58.4083 30.3977 66.6043 30.3977C73.9481 30.3977 79.1895 25.7528 79.1895 18.0966V16.4318C79.1895 15.3272 78.2941 14.4318 77.1895 14.4318H69.0162C67.9117 14.4318 67.0162 15.3272 67.0162 16.4318V17.0625C67.0162 18.1671 67.9117 19.0625 69.0162 19.0625H71.2184C72.3415 19.0625 73.2865 20.0103 72.9315 21.0758C72.1237 23.4997 69.8988 24.9574 66.6327 24.9574C62.0162 24.9574 59.1043 21.5057 59.1043 15.4261C59.1043 9.37499 62.1299 5.9517 66.5759 5.9517C69.1598 5.9517 71.0632 7.03864 72.101 8.91956Z" fill="white"/>
<path d="M110.543 15.4545C110.543 5.93749 104.633 0.511353 96.9204 0.511353C89.1647 0.511353 83.2982 5.93749 83.2982 15.4545C83.2982 24.929 89.1647 30.3977 96.9204 30.3977C104.633 30.3977 110.543 24.9716 110.543 15.4545ZM104.307 15.4545C104.307 21.6193 101.381 24.9574 96.9204 24.9574C92.4459 24.9574 89.534 21.6193 89.534 15.4545C89.534 9.28976 92.4459 5.9517 96.9204 5.9517C101.381 5.9517 104.307 9.28976 104.307 15.4545Z" fill="white"/>
</svg>
