<svg width="72" height="72" viewBox="0 0 72 72" fill="none" xmlns="http://www.w3.org/2000/svg">
<path fill-rule="evenodd" clip-rule="evenodd" d="M0 36C0 16.1178 16.1178 0 36 0C55.8823 0 72 16.1178 72 36C72 55.8823 55.8823 72 36 72C16.1178 72 0 55.8823 0 36ZM41 25.5C41.3978 25.5 41.7794 25.658 42.0607 25.9393C42.342 26.2206 42.5 26.6022 42.5 27V45C42.5 45.3978 42.342 45.7794 42.0607 46.0607C41.7794 46.342 41.3978 46.5 41 46.5H32C31.6022 46.5 31.2206 46.342 30.9393 46.0607C30.658 45.7794 30.5 45.3978 30.5 45V27C30.5 26.6022 30.658 26.2206 30.9393 25.9393C31.2206 25.658 31.6022 25.5 32 25.5H41ZM32 24C31.2044 24 30.4413 24.3161 29.8787 24.8787C29.3161 25.4413 29 26.2044 29 27V45C29 45.7957 29.3161 46.5587 29.8787 47.1213C30.4413 47.6839 31.2044 48 32 48H41C41.7957 48 42.5587 47.6839 43.1213 47.1213C43.6839 46.5587 44 45.7957 44 45V27C44 26.2044 43.6839 25.4413 43.1213 24.8787C42.5587 24.3161 41.7957 24 41 24H32ZM37.5607 44.5607C37.2794 44.842 36.8978 45 36.5 45C36.1022 45 35.7206 44.842 35.4393 44.5607C35.158 44.2794 35 43.8978 35 43.5C35 43.1022 35.158 42.7206 35.4393 42.4393C35.7206 42.158 36.1022 42 36.5 42C36.8978 42 37.2794 42.158 37.5607 42.4393C37.842 42.7206 38 43.1022 38 43.5C38 43.8978 37.842 44.2794 37.5607 44.5607Z" fill="#D34F2D"/>
</svg>
