<svg width="72" height="72" viewBox="0 0 72 72" fill="none" xmlns="http://www.w3.org/2000/svg">
<path fill-rule="evenodd" clip-rule="evenodd" d="M72 36C72 16.1177 55.8823 0 36 0V0C16.1177 0 0 16.1177 0 36V36C0 55.8823 16.1177 72 36 72V72C55.8823 72 72 55.8823 72 36V36ZM49.6677 39.4582C49.8079 39.7295 50.1393 39.8386 50.4199 39.7182C51.6183 39.2041 53.0083 38.872 54.583 38.8631C59.2367 38.833 61.8601 41.8484 61.7395 44.6129C61.6591 46.7637 59.679 47.6582 59.3071 47.7186C59.0357 47.7587 58.895 47.7689 58.8548 47.5577C58.8246 47.4171 58.9251 47.3466 59.2367 47.1556C59.5484 46.9546 60.4832 46.3114 60.654 45.1454C60.8248 43.9795 59.9403 41.1852 55.4675 40.6626C54.2874 40.52 53.2497 40.5553 52.3414 40.708C51.2787 40.8865 50.8638 42.0387 50.9143 43.1151V43.1151C50.9646 44.5122 49.9996 45.5474 48.9945 46.2912C48.4115 46.7233 47.7782 47.0149 47.2556 47.1858C46.8335 47.3667 46.2705 47.5476 45.8786 47.4672C45.0042 47.2863 44.5418 46.5124 45.1349 44.8037C45.4326 43.9476 46.2558 42.6782 47.5565 41.5295C47.7423 41.3654 47.8022 41.0983 47.6923 40.8762V40.8762C47.4061 40.2977 47.1208 39.721 46.9642 39.1849V39.1849C46.7842 38.5624 45.7989 38.4335 45.4848 39.0003C44.9978 39.8792 44.3633 40.957 43.6573 41.9892C43.5673 42.1293 43.4771 42.2596 43.387 42.3897V42.3897C43.3864 42.3907 43.3862 42.3919 43.3867 42.393C43.6979 43.1162 43.9488 43.8795 43.979 44.6528C44.0393 46.06 43.4262 47.1153 42.421 47.859C41.8682 48.2611 41.2953 48.5325 40.7927 48.7134C40.4711 48.8542 39.8278 49.0853 38.9031 49.1457C38.3905 49.1858 37.908 49.1457 37.6367 48.9447C37.2648 48.6631 37.2245 48.3113 37.4155 47.839C37.544 47.5179 38.3521 46.5619 39.1946 45.5653C39.4069 45.3141 39.6214 45.0603 39.8278 44.8135C40.1075 44.4739 40.3774 44.134 40.6175 43.8141C40.62 43.8108 40.6196 43.8062 40.6167 43.8034V43.8034C40.6139 43.8005 40.6135 43.796 40.6159 43.7927C40.6372 43.7642 40.7389 43.6276 40.9025 43.4015C41.0215 43.237 41.0426 43.0208 40.9546 42.8378C40.8814 42.6856 40.8059 42.533 40.7306 42.3808C40.4503 41.8144 40.1719 41.2516 40.0188 40.7226V40.7226C39.8565 40.161 38.9472 40.0834 38.7188 40.6215C38.2476 41.732 37.6215 43.1446 36.9833 44.4013C35.9835 46.3709 35.3119 47.5648 35.008 48.0918C35.0048 48.0975 35.0032 48.1036 35.0032 48.1101V48.1101C35.0032 48.1168 35.0015 48.1233 34.9981 48.129C34.9614 48.1908 34.9229 48.2516 34.8826 48.3111C34.851 48.3664 34.8318 48.3969 34.8251 48.4074C34.8242 48.4087 34.8223 48.4081 34.8223 48.4066V48.4066C34.8223 48.4051 34.8204 48.4043 34.8196 48.4056C34.4766 48.9093 33.7247 49.8791 32.9729 49.8791C32.2971 49.8791 31.924 49.4283 31.7278 48.8223C31.6135 48.4691 30.5487 48.2419 30.3797 48.5725V48.5725C29.8269 49.6679 29.3243 50.5827 28.2187 50.5827C27.9071 50.5827 27.4045 50.5725 26.9824 50.1807C26.0275 49.276 25.3038 46.9845 25.4445 45.2154C25.4832 44.7314 25.5333 44.2961 25.5941 43.8992C25.7083 43.1543 24.8771 42.4801 24.2282 42.8635V42.8635L23.2612 43.4323C23.2284 43.4516 23.2162 43.4929 23.2333 43.5268V43.5268C24.0876 45.1652 24.3086 48.7535 22.4593 51.5176C20.5998 54.2816 17.1623 55.9602 13.8052 55.0254C12.7197 54.7239 11.0914 52.4824 12.4986 49.3665C13.7449 46.6126 18.7203 44.0092 20.0269 43.366C20.0741 43.3402 20.1232 43.3126 20.1741 43.284V43.284C20.2775 43.2257 20.2932 43.0818 20.2019 43.0059C19.5545 42.4675 18.7082 41.8846 17.782 41.2469C14.8111 39.2009 11.0188 36.5894 10.3375 33.0635C10.0762 31.7368 10.6994 28.5405 14.6194 24.8818C17.9162 21.7961 22.4995 19.4441 26.7312 17.9365C33.8374 15.4136 41.3557 16.9012 42.5116 21.4343C43.6474 25.887 39.7777 31.2141 34.8224 33.1339C30.3999 34.8426 26.7411 34.5712 25.2436 34.0787C23.5349 33.5158 22.5298 32.3901 22.2885 31.7569C22.188 31.5056 22.0272 31.0834 22.2885 30.9427C22.4494 30.8523 22.5097 30.8724 22.9419 31.3448C23.3539 31.7971 24.9923 33.0032 28.1082 32.6514C36.2898 31.7368 41.2149 25.3844 39.6569 21.967C38.5615 19.5748 32.2593 18.4993 24.3892 22.4193C14.7802 27.2037 14.2575 31.1538 14.1771 32.6514C14.0242 35.5002 16.5179 37.4171 19.0218 39.3419C20.14 40.2015 21.2603 41.0627 22.1477 42.0091V42.0091C22.2127 42.0802 22.3176 42.0981 22.4023 42.0522C22.6826 41.9005 22.9698 41.742 23.2569 41.5835C23.4812 41.4597 23.7056 41.3359 23.9267 41.2153C24.9338 40.6627 25.902 40.1345 26.6145 39.7458V39.7458C27.1207 39.4697 27.5443 39.0689 27.9246 38.6355C29.0211 37.3857 30.6803 36.2299 31.9375 36.2299C33.962 36.2299 33.6656 38.7117 33.5353 39.439C33.5337 39.4479 33.597 39.4763 33.606 39.4763V39.4763C33.6177 39.4763 33.637 39.4593 33.6659 39.4338C33.7857 39.328 34.0701 39.0767 34.6614 39.2954C35.3452 39.5415 35.2682 40.0027 35.248 40.1238C35.2459 40.1362 35.2445 40.1451 35.2445 40.1497C35.2478 40.1868 35.1482 40.5521 35.0002 41.0945C34.7073 42.1684 34.225 43.9366 33.9779 45.2256C33.807 46.1502 33.9075 46.8236 33.9578 46.8236C34.0278 46.8236 34.1772 46.5854 34.3172 46.3358C34.3189 46.3328 34.3197 46.3294 34.3197 46.326V46.326C34.3197 46.3228 34.3205 46.3197 34.322 46.3168C34.3378 46.2869 34.4359 46.1005 34.6012 45.7884C34.6072 45.7763 34.5932 45.8015 34.5765 45.8318C34.5376 45.902 34.4838 45.9989 34.6313 45.718C34.8425 45.316 35.1339 44.7229 35.4656 43.9792C35.5163 43.866 35.5783 43.7278 35.6495 43.5691C36.4954 41.6836 38.6481 36.8848 38.8429 36.3101C38.9725 35.9447 39.0642 35.5724 39.1381 35.2722C39.1902 35.0604 39.2335 34.8845 39.2751 34.7722C39.3756 34.5009 40.2701 34.2898 41.3054 34.2998C42.3406 34.3099 42.4411 34.7521 42.4512 34.8426C42.4512 34.8728 42.4057 35.0049 42.3391 35.1983C42.1843 35.6479 41.9154 36.4293 41.8381 37.0338C41.7468 37.7467 41.8061 38.1725 41.8804 38.7059C41.8961 38.8192 41.9126 38.9373 41.9284 39.064V39.064C42.0328 39.8977 43.1986 39.9125 43.6165 39.1836C44.5953 37.4761 45.655 35.478 45.7882 34.7823C45.9188 34.139 46.1199 33.5158 46.2204 33.2445C46.3209 32.9731 47.2156 32.762 48.2507 32.772C49.2859 32.7821 49.3864 33.2243 49.3966 33.3148C49.3966 33.345 49.3511 33.477 49.2846 33.6704C49.1298 34.1201 48.8608 34.9015 48.7835 35.5061C48.6923 36.2193 48.7516 36.6452 48.826 37.1789C48.8418 37.292 48.8582 37.4099 48.874 37.5364C48.9402 38.0503 49.28 38.7078 49.6677 39.4582V39.4582ZM15.6446 52.201C16.5291 52.7237 18.6097 52.1106 20.0872 50.4923C21.6451 48.7938 22.2884 46.6429 21.6151 44.1906C21.6151 44.1904 21.6148 44.1903 21.6147 44.1904V44.1904C21.5708 44.2179 21.5269 44.2453 21.4847 44.2711C21.4179 44.3118 21.3484 44.348 21.2833 44.3913V44.3913C21.131 44.4835 20.9883 44.5693 20.8584 44.6474C20.6624 44.7652 20.4956 44.8655 20.3687 44.9441C19.4238 45.5371 17.9865 46.502 16.8809 47.5473C15.0615 49.2661 14.6897 51.6482 15.6446 52.201ZM30.5814 43.9423C30.6986 43.6364 30.804 43.3614 30.8923 43.1449C31.2139 42.3609 32.4703 38.8631 32.209 38.3805C31.9878 38.0086 31.1034 38.3102 30.2891 39.2148C29.7865 39.7777 28.9322 41.225 28.5301 42.4413C27.7362 44.8536 28.0778 47.2961 28.6408 47.4468C29.1816 47.5966 30.0184 45.412 30.5814 43.9423ZM39.2951 47.5374C39.3856 47.5976 39.5866 47.5173 39.8077 47.4066C40.4309 47.0146 41.818 46.0497 41.8179 44.6024V44.6024C41.8179 44.5635 41.7683 44.5467 41.7446 44.5776C41.5598 44.8182 41.3825 45.0419 41.2187 45.2486C41.1218 45.3708 41.0297 45.4871 40.9434 45.5975C40.6041 46.0217 39.8683 46.8245 39.5442 47.1752C39.4383 47.2899 39.1596 47.4599 39.2951 47.5374V47.5374ZM47.0847 44.1802V44.1802C46.6174 45.1841 47.4383 45.7278 48.1496 44.8792C48.5022 44.4585 48.7588 43.8787 48.7632 43.0745V43.0745C48.7789 42.6562 48.2654 42.5189 47.9885 42.8329C47.5276 43.3558 47.2363 43.8483 47.0847 44.1802Z" fill="#CF649A"/>
</svg>
