<svg width="72" height="72" viewBox="0 0 72 72" fill="none" xmlns="http://www.w3.org/2000/svg">
<path fill-rule="evenodd" clip-rule="evenodd" d="M0 36C0 16.1178 16.1178 0 36 0C55.8823 0 72 16.1178 72 36C72 55.8823 55.8823 72 36 72C16.1178 72 0 55.8823 0 36ZM35 28C31.134 28 28 31.134 28 35C28 38.866 31.134 42 35 42C36.886 42 38.5977 41.2542 39.8564 40.0414C39.8827 40.0071 39.9115 39.9742 39.9429 39.9429C39.9742 39.9115 40.0071 39.8827 40.0414 39.8564C41.2542 38.5977 42 36.886 42 35C42 31.134 38.866 28 35 28ZM42.0319 40.6177C43.2635 39.078 44 37.125 44 35C44 30.0294 39.9706 26 35 26C30.0294 26 26 30.0294 26 35C26 39.9706 30.0294 44 35 44C37.125 44 39.078 43.2635 40.6177 42.0319L44.2929 45.7071C44.6834 46.0976 45.3166 46.0976 45.7071 45.7071C46.0976 45.3166 46.0976 44.6834 45.7071 44.2929L42.0319 40.6177Z" fill="#FB5722"/>
</svg>
