<svg width="72" height="72" viewBox="0 0 72 72" fill="none" xmlns="http://www.w3.org/2000/svg">
<path fill-rule="evenodd" clip-rule="evenodd" d="M36 0C16.1178 0 0 16.1178 0 36C0 55.8823 16.1178 72 36 72C55.8823 72 72 55.8823 72 36C72 16.1178 55.8823 0 36 0ZM27.1975 38.5649L23.0784 24.5584H20.0956L21.4593 29.1327L18.6745 38.5649L14.5547 24.5584H11.5714L18.3909 47.5714H18.6745L22.9362 33.3089L27.1975 47.5712H27.4815L33.3206 27.8642L33.5933 27.3991H38.3947L34.4175 34.2737V35.6369H35.5534C37.0124 35.6369 38.0825 36.0835 38.765 36.9741C39.3514 37.7304 39.6459 38.8015 39.6459 40.1839C39.6459 41.4351 39.371 42.5052 38.8218 43.3955C38.2723 44.2853 37.5991 44.73 36.8043 44.73C36.0474 44.73 35.3891 44.4788 34.83 43.9775C34.2708 43.4763 33.821 42.7887 33.4803 41.9167L31.1504 42.8843C31.6236 44.3226 32.3536 45.464 33.338 46.3068C34.3227 47.1488 35.4783 47.5714 36.8043 47.5714C38.5655 47.5714 39.9999 46.8607 41.1085 45.4399C42.2161 44.0193 42.771 42.2686 42.771 40.1839C42.771 38.4995 42.3914 37.032 41.6334 35.7808C40.8769 34.5314 39.7592 33.6693 38.2812 33.1942L42.4858 25.9507V24.5584H31.3177L27.1975 38.5649ZM58.5984 26.1831C58.5984 25.8812 58.3987 25.76 57.9639 25.76V25.7598H57.583V26.5757H57.9757C58.3985 26.5757 58.5984 26.473 58.5984 26.1831ZM57.1197 25.4584H58.0482C58.7372 25.4584 59.0752 25.6875 59.0748 26.1351C59.0748 26.4851 58.8697 26.7271 58.5134 26.7994L59.0632 27.9224H58.5437L58.0425 26.8713H57.5834V27.9224H57.1197V25.4584ZM59.3286 28.0614C59.6854 27.7174 59.8785 27.252 59.8785 26.7508C59.8785 26.2252 59.6909 25.754 59.3404 25.4029C58.9783 25.0356 58.5136 24.8415 57.9939 24.8415C57.487 24.8415 57.0212 25.0289 56.6786 25.3792C56.3093 25.7538 56.104 26.2372 56.104 26.7323C56.104 27.2273 56.3026 27.6924 56.6594 28.0549C57.0153 28.4177 57.4925 28.6169 57.9755 28.6169C58.4888 28.6169 58.9546 28.4238 59.3286 28.0614ZM56.478 25.1741C56.877 24.7697 57.4033 24.5584 57.9888 24.5584C58.5792 24.5584 59.1236 24.7819 59.5409 25.2045C59.9392 25.6095 60.1684 26.1529 60.1684 26.7325C60.1684 27.3306 59.9453 27.8622 59.5349 28.2609C59.1058 28.6775 58.5559 28.907 57.9888 28.907C57.409 28.907 56.8715 28.6769 56.4547 28.2542C56.0439 27.8377 55.8204 27.3065 55.8204 26.7323C55.8204 26.1582 56.0568 25.6028 56.478 25.1741ZM54.8133 27.3665L54.3307 24.4286L52.6461 27.7875C52.6461 27.7875 51.9218 26.4521 51.2078 25.8411C50.5265 25.26 49.6444 24.7223 48.5299 24.8378C47.4513 24.949 46.2357 25.8972 45.4186 27.4779C44.4891 29.2751 44.1734 31.0965 44.1673 33.1047C44.1574 35.9202 45.1953 37.8416 45.1953 37.8416C45.1953 37.8416 44.9569 36.9488 44.997 35.4349C44.9977 35.4061 44.9985 35.3771 44.9993 35.348C45.0233 34.4277 45.0502 33.4012 45.7405 31.3449C46.3366 29.5726 47.6992 28.1349 48.9019 27.8871C49.8387 27.6937 50.4368 27.8345 51.3559 28.482C52.4467 29.25 53.1036 30.6386 53.1036 30.6386L54.8133 27.3665ZM53.3141 42.9226C53.7863 42.4031 54.5416 41.0526 54.5416 41.0526L54.9758 43.3191C54.9758 43.3191 54.7065 43.8432 54.541 44.1007C54.3153 44.4542 53.9065 45.0444 53.4755 45.5053C53.0626 45.948 52.4099 46.4942 52.0995 46.6932L52.0847 46.7026C51.7512 46.9143 50.5097 47.7029 48.7155 47.386C46.8941 47.0635 45.6947 45.6362 45.0776 44.8072C44.4161 43.9184 43.9499 42.8977 43.7976 42.5634C43.5344 41.9837 43.1132 40.6176 43.1132 40.6176C43.1132 40.6176 43.8685 41.9811 44.3525 42.6623C44.8359 43.3444 45.6903 44.0752 46.0258 44.3242C46.3615 44.5709 47.3157 45.1662 48.3443 45.2659C49.3729 45.3653 49.9183 45.279 50.9593 44.8203C52 44.3619 52.8438 43.4439 53.3141 42.9226Z" fill="#0067B1"/>
</svg>
