<svg width="72" height="72" viewBox="0 0 72 72" fill="none" xmlns="http://www.w3.org/2000/svg">
<rect width="72" height="72" rx="36" fill="#1C78C0"/>
<path d="M53.9445 47.1348L37.2751 56.5716V49.2214L47.6457 43.5103L53.9445 47.1348V47.1348ZM55.0873 46.103V26.3838L48.9877 29.9103V42.583L55.0841 46.0997L55.0873 46.103ZM19.1429 47.1348L35.7959 56.565V49.2214L25.422 43.5103L19.1429 47.1348ZM18 46.103V26.3838L24.0996 29.9103V42.583L18 46.103ZM18.7151 25.1071L35.8122 15.4287V22.534L24.8571 28.5585L24.769 28.6075L18.7151 25.1071ZM54.3657 25.1071L37.2751 15.4287V22.534L48.2302 28.5552L48.3184 28.6042L54.3722 25.1071H54.3657ZM35.8122 47.5495L25.5624 41.9103V30.7495L35.8122 36.6532V47.5495ZM37.2751 47.5495L47.5249 41.9169V30.7495L37.2751 36.6532V47.5495ZM26.258 29.4695L36.5437 23.8075L46.8294 29.4695L36.5437 35.3993L26.258 29.4695Z" fill="white"/>
</svg>
