<svg width="685" height="440" viewBox="0 0 685 440" fill="none" xmlns="http://www.w3.org/2000/svg">
<path fill-rule="evenodd" clip-rule="evenodd" d="M0.144559 209.962L137.303 244.651L126.158 288.718L199.42 307.246L210.565 263.179L238.438 270.228C276.655 348.977 341.275 377.294 410.662 347.94C421.581 343.321 431.38 337.791 440.026 331.429L439.067 386.795L471.089 439.14L591.775 365.311L615.495 404.086L679.958 364.651L656.238 325.876L684.834 308.382L652.811 256.037L624.215 273.53L528.148 116.494L467.536 153.573C429.938 68.081 364.019 38.6947 292.171 69.2419C277.229 75.5945 264.348 83.5324 253.63 92.8999L270.747 25.2169L173.8 0.698251L15.1901 150.472L0.144559 209.962ZM467.536 153.573L442.844 168.678L440.026 331.429C489.078 295.332 500.957 232.438 469.033 157.041C468.539 155.875 468.04 154.719 467.536 153.573ZM253.63 92.8999L225.61 203.689L258.11 211.908L243.064 271.399L238.438 270.228C236.449 266.13 234.532 261.896 232.689 257.526C203.022 187.171 212.024 129.263 253.63 92.8999ZM154.001 185.578L90.655 169.558L91.2122 167.354L176.874 85.87L179.077 86.4273L154.001 185.578ZM561.207 312.076L505.468 346.174L504.282 344.235L505.897 226.019L507.836 224.833L561.207 312.076ZM307.984 225.513C331.677 281.965 360.443 299.525 385.541 288.854C410.64 278.183 417.822 245.339 393.737 189.054C370.208 134.076 342.168 117.134 317.07 127.805C291.971 138.476 284.847 170.368 307.984 225.513Z" fill="white"/>
</svg>
