<svg width="504" height="353" viewBox="0 0 504 353" fill="none" xmlns="http://www.w3.org/2000/svg">
<path fill-rule="evenodd" clip-rule="evenodd" d="M0 221.24L60.0886 246.504L96.4246 160.082L150.893 182.984L127.618 352.984L196.759 340.206L202.009 292.52L279.908 278.123L301.854 320.783L370.996 308.004L359.835 287.651C360.38 287.826 360.927 287.998 361.476 288.167C374.346 292.124 387.2 293.936 399.666 293.712L409.855 317.018L460.512 332.596L440.395 284.035C465.594 271.724 486.158 247.732 497.334 211.386C518.991 140.96 485.339 89.1393 428.093 71.5353C370.434 53.8046 313.891 77.8899 292.235 148.316C291.118 151.945 290.149 155.527 289.323 159.058L249.48 86.3978L239.018 88.3314L248.645 65.4324L93.0202 0L0 221.24ZM189.445 97.4932L228.297 113.829L239.018 88.3314L189.445 97.4932ZM158.266 129.132L202.799 147.856L182.451 196.252L150.893 182.984L158.266 129.132ZM158.266 129.132L161.901 102.584L189.445 97.4932L132.761 73.6605L116.773 111.686L158.266 129.132ZM289.323 159.058C274.356 222.991 306.156 270.395 359.835 287.651L289.323 159.058ZM207.669 241.898L216.78 159.654L218.624 159.313L256.529 232.868L207.669 241.898ZM380.23 239.275L366.245 200.827L410.725 214.505L417.103 230.779C425.979 222.802 433.216 210.264 438.44 193.276C450.092 155.386 441.186 130.107 412.768 121.369C384.351 112.63 362.78 128.536 351.129 166.426C339.477 204.316 348.383 229.594 376.8 238.333L376.801 238.333C377.934 238.682 379.066 239.03 380.23 239.275Z" fill="white"/>
</svg>
