<svg width="171" height="171" viewBox="0 0 171 171" fill="none" xmlns="http://www.w3.org/2000/svg">
<path d="M82.5909 16H84.3466V10.9261L89.2898 10.9261V9.42045L84.3466 9.42045V5.875L89.8068 5.875V4.36364L82.5909 4.36364V16Z" fill="white"/>
<path d="M95.5804 16.5766L102.811 17.9702L103.097 16.4861L97.5904 15.4248L98.2646 11.9267L103.33 12.9031L103.615 11.4246L98.5496 10.4482L99.2206 6.96685L104.66 8.01526L104.946 6.53121L97.7826 5.15053L95.5804 16.5766Z" fill="white"/>
<path d="M108.544 19.7012L110.68 17.2392L114.9 18.9286L114.742 22.1825L116.472 22.8751L116.909 10.5159L115.026 9.76206L106.814 19.0085L108.544 19.7012ZM111.704 16.0578L115.142 12.0854L115.227 12.1192L114.974 17.3671L111.704 16.0578Z" fill="white"/>
<path d="M125.408 16.2698L128.457 18.2296L122.983 26.7473L124.456 27.6934L129.93 19.1757L132.984 21.1386L133.801 19.8672L126.225 14.9984L125.408 16.2698Z" fill="white"/>
<path d="M143.717 28.6164L138.534 34.0526C137.444 35.1958 135.87 35.2654 134.587 34.0421C133.308 32.8227 133.299 31.2435 134.389 30.1003L139.572 24.6641L138.302 23.4525L133.02 28.9916C131.334 30.7598 131.463 33.2765 133.482 35.2017C135.501 37.1268 138.025 37.1391 139.711 35.3709L144.992 29.8318L143.717 28.6164Z" fill="white"/>
<path d="M140.246 42.2246L141.265 43.6547L144.852 41.1005L146.236 43.0443C146.259 43.0767 146.279 43.1045 146.302 43.1369L144.086 47.6165L145.246 49.2457L147.587 44.4122C148.844 45.2674 150.224 45.1571 151.496 44.2508C153.241 43.0083 153.697 41.0519 152.131 38.8535L149.725 35.4748L140.246 42.2246ZM146.083 40.2238L149.517 37.7783L150.796 39.5741C151.801 40.9857 151.545 42.0468 150.471 42.8114C149.402 43.5727 148.367 43.4312 147.375 42.0381L146.083 40.2238Z" fill="white"/>
<path d="M147.293 53.1145L150.352 59.8127L151.727 59.1849L149.397 54.0837L152.638 52.6038L154.781 57.2967L156.151 56.6712L154.008 51.9783L157.233 50.5055L159.534 55.5446L160.909 54.9168L157.878 48.2806L147.293 53.1145Z" fill="white"/>
<path d="M152.883 68.0252C153.719 71.4707 156.34 72.9456 159.874 72.0883C163.391 71.235 165.028 68.7273 164.22 65.3977L163.304 61.6209L151.995 64.3643L152.883 68.0252ZM153.9 65.7088L162.227 63.6888L162.704 65.6545C163.304 68.1282 162.133 69.7627 159.466 70.4097C156.788 71.0594 154.977 70.1482 154.351 67.5696L153.9 65.7088Z" fill="white"/>
<path d="M156.341 95.6229C156.144 96.9895 157.093 98.2567 158.459 98.4532C159.826 98.6497 161.093 97.7011 161.29 96.3345C161.486 94.9678 160.538 93.7006 159.171 93.5041C157.804 93.3076 156.537 94.2563 156.341 95.6229Z" fill="white"/>
<path d="M140.379 127.609L139.229 128.936L143.064 132.259L139.827 135.994L140.965 136.98L144.202 133.245L146.881 135.566L143.306 139.693L144.448 140.683L149.173 135.229L140.379 127.609Z" fill="white"/>
<path d="M131.437 137.048L125.649 141.6L126.583 142.788L130.991 139.322L133.193 142.122L129.138 145.311L130.069 146.495L134.124 143.305L136.316 146.092L131.961 149.517L132.896 150.705L138.63 146.195L131.437 137.048Z" fill="white"/>
<path d="M120.586 144.799L121.048 148.026L117.008 150.109L114.653 147.858L112.996 148.712L122.05 157.136L123.853 156.207L122.243 143.945L120.586 144.799ZM121.271 149.573L122.021 154.773L121.94 154.815L118.139 151.187L121.271 149.573Z" fill="white"/>
<path d="M112.136 159.791L108.658 160.812L105.805 151.098L104.126 151.591L106.979 161.305L103.495 162.328L103.921 163.778L112.562 161.241L112.136 159.791Z" fill="white"/>
<path d="M90.815 165.543L90.101 158.066C89.9509 156.494 90.9288 155.259 92.6935 155.09C94.4526 154.922 95.6522 155.949 95.8023 157.522L96.5163 164.999L98.2641 164.832L97.5366 157.213C97.3043 154.781 95.3183 153.23 92.5412 153.495C89.7641 153.76 88.1019 155.66 88.3341 158.092L89.0616 165.711L90.815 165.543Z" fill="white"/>
<path d="M82.8037 154.009L81.0559 153.842L80.6374 158.225L78.2618 157.998C78.2222 157.995 78.1883 157.991 78.1487 157.988L76.2143 153.379L74.2234 153.189L76.3435 158.123C74.8736 158.514 74.0537 159.628 73.9052 161.184C73.7016 163.316 74.882 164.941 77.5686 165.198L81.6976 165.592L82.8037 154.009ZM80.4937 159.73L80.093 163.927L77.8984 163.717C76.1733 163.552 75.5389 162.664 75.6642 161.352C75.789 160.045 76.574 159.355 78.2765 159.518L80.4937 159.73Z" fill="white"/>
<path d="M69.9589 152.203L62.8935 150.128L62.4677 151.578L67.8485 153.158L66.8448 156.577L61.8947 155.123L61.4705 156.568L66.4206 158.021L65.4218 161.423L60.1064 159.862L59.6806 161.313L66.6805 163.368L69.9589 152.203Z" fill="white"/>
<path d="M55.0294 146.663C51.8781 145.039 49.0474 146.053 47.3811 149.285C45.7227 152.502 46.546 155.381 49.5913 156.951L53.0456 158.732L58.3777 148.389L55.0294 146.663ZM56.1142 148.948L52.1881 156.564L50.3902 155.637C48.1277 154.471 47.6589 152.516 48.9164 150.077C50.1791 147.627 52.0539 146.855 54.4123 148.071L56.1142 148.948Z" fill="white"/>
<path d="M31.9085 131.203C31.0043 130.16 29.4254 130.047 28.382 130.951C27.3385 131.855 27.2256 133.434 28.1298 134.478C29.0339 135.521 30.6128 135.634 31.6563 134.73C32.6997 133.826 32.8127 132.247 31.9085 131.203Z" fill="white"/>
<path d="M21.91 110.789L21.3357 109.13L16.5409 110.79L14.9242 106.118L13.5013 106.611L15.118 111.282L11.7676 112.442L9.98172 107.282L8.55348 107.776L10.9136 114.595L21.91 110.789Z" fill="white"/>
<path d="M18.2064 98.3256L17.1584 91.0369L15.6624 91.252L16.4605 96.8028L12.9343 97.3098L12.2001 92.2033L10.7097 92.4175L11.4439 97.5241L7.93458 98.0287L7.14618 92.5453L5.6502 92.7604L6.68846 99.9816L18.2064 98.3256Z" fill="white"/>
<path d="M16.9192 85.0533L13.894 83.8398L14.1103 79.2995L17.2369 78.3847L17.3256 76.5232L5.50312 80.1522L5.40661 82.1784L16.8305 86.9148L16.9192 85.0533ZM12.4427 83.2587L7.56408 81.3084L7.56841 81.2176L12.6103 79.74L12.4427 83.2587Z" fill="white"/>
<path d="M8.16086 70.239L9.01549 66.7162L18.8551 69.1033L19.2677 67.4026L9.42807 65.0156L10.284 61.4872L8.81527 61.1309L6.6921 69.8827L8.16086 70.239Z" fill="white"/>
<path d="M13.8399 48.8982L20.6725 52.0186C22.1093 52.6747 22.6898 54.1391 21.9534 55.7517C21.2193 57.359 19.7301 57.8844 18.2933 57.2283L11.4607 54.1079L10.7314 55.705L17.6931 58.8843C19.9155 59.8992 22.2519 58.9549 23.4108 56.4173C24.5697 53.8796 23.7558 51.4903 21.5334 50.4754L14.5716 47.296L13.8399 48.8982Z" fill="white"/>
<path d="M27.8349 47.7276L28.8533 46.2974L25.2664 43.7432L26.6506 41.7993C26.6737 41.7669 26.6935 41.7392 26.7165 41.7068L31.6745 42.3356L32.8346 40.7065L27.5015 40.0755C27.8983 38.6073 27.343 37.34 26.0702 36.4336C24.3253 35.1911 22.3276 35.4008 20.7621 37.5992L18.3562 40.9778L27.8349 47.7276ZM24.0353 42.8665L20.6011 40.4211L21.8799 38.6253C22.8851 37.2137 23.9714 37.1084 25.0452 37.873C26.1143 38.6344 26.3193 39.6592 25.3272 41.0523L24.0353 42.8665Z" fill="white"/>
<path d="M35.8211 37.5065L41.1505 32.425L40.1075 31.3312L36.0488 35.2012L33.5904 32.6229L37.3242 29.0627L36.2852 27.973L32.5514 31.5331L30.1047 28.9672L34.1141 25.1443L33.0711 24.0505L27.7911 29.0849L35.8211 37.5065Z" fill="white"/>
<path d="M48.0834 27.3471C51.066 25.4303 51.6027 22.4715 49.6367 19.4124C47.68 16.3677 44.7749 15.6411 41.8926 17.4934L38.6232 19.5946L44.9143 29.3837L48.0834 27.3471ZM45.5619 27.144L40.9296 19.9359L42.6312 18.8424C44.7726 17.4662 46.7 18.0376 48.1837 20.3463C49.6735 22.6645 49.4049 24.6742 47.1727 26.1087L45.5619 27.144Z" fill="white"/>
<path d="M73.0325 15.0537C74.3882 14.7924 75.2755 13.4815 75.0142 12.1258C74.7529 10.7701 73.442 9.88279 72.0862 10.1441C70.7305 10.4054 69.8433 11.7163 70.1045 13.072C70.3658 14.4278 71.6768 15.315 73.0325 15.0537Z" fill="white"/>
</svg>
