<svg width="161" height="161" viewBox="0 0 161 161" fill="none" xmlns="http://www.w3.org/2000/svg">
<path d="M78.4432 12H79.7599V8.1946L83.4673 8.1946V7.06534L79.7599 7.06534V4.40625L83.8551 4.40625V3.27273L78.4432 3.27273V12Z" fill="black"/>
<path d="M91.2607 12.7261L96.6836 13.7713L96.8981 12.6583L92.7682 11.8623L93.2738 9.23868L97.0732 9.97096L97.2869 8.8621L93.4875 8.12983L93.9908 5.51879L98.0705 6.3051L98.285 5.19206L92.9123 4.15656L91.2607 12.7261Z" fill="black"/>
<path d="M104.412 16.1257L106.014 14.2793L109.179 15.5463L109.06 17.9867L110.358 18.5062L110.686 9.23681L109.273 8.6714L103.114 15.6063L104.412 16.1257ZM106.782 13.3932L109.36 10.4139L109.424 10.4392L109.234 14.3752L106.782 13.3932Z" fill="black"/>
<path d="M119.026 14.5792L121.313 16.0491L117.207 22.4374L118.312 23.147L122.417 16.7587L124.708 18.2309L125.321 17.2773L119.639 13.6257L119.026 14.5792Z" fill="black"/>
<path d="M135.864 26.2966L131.976 30.3738C131.159 31.2312 129.978 31.2834 129.016 30.3659C128.057 29.4514 128.05 28.267 128.867 27.4096L132.755 23.3324L131.802 22.4238L127.841 26.578C126.576 27.9042 126.673 29.7917 128.187 31.2356C129.701 32.6795 131.594 32.6887 132.859 31.3625L136.82 27.2082L135.864 26.2966Z" fill="black"/>
<path d="M134.704 38.187L135.468 39.2596L138.158 37.344L139.196 38.8019C139.214 38.8262 139.228 38.847 139.246 38.8713L137.584 42.231L138.454 43.4529L140.209 39.8278C141.153 40.4692 142.187 40.3865 143.142 39.7067C144.45 38.7748 144.792 37.3075 143.618 35.6587L141.813 33.1247L134.704 38.187ZM139.081 36.6865L141.657 34.8524L142.616 36.1992C143.37 37.2579 143.178 38.0537 142.373 38.6272C141.571 39.1981 140.794 39.092 140.05 38.0472L139.081 36.6865Z" fill="black"/>
<path d="M141.751 49.3354L144.046 54.3591L145.077 53.8882L143.33 50.0623L145.76 48.9524L147.367 52.472L148.395 52.0029L146.787 48.4832L149.206 47.3786L150.932 51.158L151.963 50.6871L149.69 45.71L141.751 49.3354Z" fill="black"/>
<path d="M147.072 63.9237C147.699 66.5078 149.665 67.614 152.315 66.971C154.953 66.3311 156.181 64.4503 155.575 61.9531L154.888 59.1205L146.406 61.1781L147.072 63.9237ZM147.835 62.1864L154.08 60.6714L154.437 62.1457C154.888 64.001 154.01 65.2269 152.01 65.7121C150.001 66.1994 148.643 65.516 148.173 63.582L147.835 62.1864Z" fill="black"/>
<path d="M149.822 90.4035C149.675 91.4285 150.386 92.3789 151.411 92.5263C152.436 92.6736 153.387 91.9622 153.534 90.9372C153.681 89.9122 152.97 88.9618 151.945 88.8144C150.92 88.6671 149.97 89.3785 149.822 90.4035Z" fill="black"/>
<path d="M134.065 122.598L133.203 123.593L136.079 126.085L133.651 128.887L134.505 129.627L136.932 126.825L138.942 128.566L136.26 131.661L137.117 132.403L140.661 128.313L134.065 122.598Z" fill="black"/>
<path d="M125.123 131.81L120.782 135.223L121.482 136.114L124.789 133.514L126.44 135.615L123.399 138.007L124.097 138.894L127.138 136.502L128.782 138.593L125.516 141.161L126.217 142.052L130.518 138.67L125.123 131.81Z" fill="black"/>
<path d="M113.942 139.522L114.288 141.942L111.258 143.504L109.491 141.816L108.249 142.457L115.039 148.775L116.392 148.078L115.184 138.882L113.942 139.522ZM114.455 143.103L115.017 147.003L114.957 147.034L112.106 144.313L114.455 143.103Z" fill="black"/>
<path d="M105.54 151.579L102.931 152.345L100.792 145.059L99.5327 145.429L101.672 152.715L99.0594 153.482L99.3788 154.57L105.859 152.667L105.54 151.579Z" fill="black"/>
<path d="M85.6582 156.631L85.1227 151.023C85.0101 149.844 85.7435 148.918 87.0671 148.792C88.3863 148.666 89.2861 149.436 89.3987 150.615L89.9342 156.223L91.245 156.098L90.6994 150.384C90.5252 148.56 89.0357 147.396 86.9528 147.595C84.87 147.794 83.6233 149.219 83.7975 151.043L84.3431 156.757L85.6582 156.631Z" fill="black"/>
<path d="M77.4314 147.969L76.1206 147.843L75.8067 151.131L74.025 150.961C73.9953 150.958 73.9698 150.956 73.9402 150.953L72.4894 147.497L70.9962 147.354L72.5863 151.055C71.4838 151.347 70.8689 152.183 70.7575 153.35C70.6048 154.949 71.4901 156.168 73.5051 156.361L76.6018 156.656L77.4314 147.969ZM75.6989 152.259L75.3984 155.407L73.7524 155.25C72.4586 155.126 71.9828 154.46 72.0768 153.476C72.1704 152.496 72.7592 151.979 74.036 152.101L75.6989 152.259Z" fill="black"/>
<path d="M64.391 145.994L59.092 144.438L58.7726 145.526L62.8082 146.711L62.0555 149.274L58.3429 148.184L58.0247 149.268L61.7373 150.358L60.9882 152.909L57.0016 151.739L56.6823 152.826L61.9322 154.368L64.391 145.994Z" fill="black"/>
<path d="M49.8815 140.462C47.518 139.243 45.395 140.004 44.1452 142.428C42.9014 144.841 43.5189 147.001 45.8029 148.178L48.3936 149.514L52.3927 141.756L49.8815 140.462ZM50.6951 142.176L47.7505 147.888L46.402 147.192C44.7052 146.318 44.3535 144.851 45.2967 143.022C46.2437 141.185 47.6498 140.606 49.4186 141.518L50.6951 142.176Z" fill="black"/>
<path d="M28.0686 125.2C27.3905 124.417 26.2063 124.332 25.4237 125.01C24.6411 125.688 24.5564 126.873 25.2345 127.655C25.9126 128.438 27.0968 128.523 27.8794 127.844C28.662 127.166 28.7467 125.982 28.0686 125.2Z" fill="black"/>
<path d="M17.5762 104.657L17.1455 103.412L13.5494 104.657L12.3369 101.154L11.2697 101.523L12.4823 105.026L9.96943 105.896L8.63003 102.026L7.55885 102.397L9.32892 107.511L17.5762 104.657Z" fill="black"/>
<path d="M14.0702 92.3068L13.2842 86.8403L12.1622 87.0016L12.7608 91.1648L10.1161 91.545L9.56546 87.7151L8.4477 87.8758L8.99836 91.7057L6.36633 92.0841L5.77504 87.9716L4.65305 88.1329L5.43174 93.5488L14.0702 92.3068Z" fill="black"/>
<path d="M12.9816 78.7673L10.7127 77.8572L10.8749 74.452L13.2199 73.7659L13.2864 72.3697L4.41954 75.0915L4.34715 76.6111L12.9151 80.1635L12.9816 78.7673ZM9.62424 77.4214L5.96526 75.9587L5.9685 75.8906L9.74995 74.7823L9.62424 77.4214Z" fill="black"/>
<path d="M6.7403 65.4626L7.38127 62.8205L14.761 64.6108L15.0704 63.3353L7.6907 61.545L8.33268 58.8988L7.23111 58.6315L5.63873 65.1954L6.7403 65.4626Z" fill="black"/>
<path d="M12.3061 45.7184L17.4305 48.0586C18.5081 48.5507 18.9435 49.649 18.3912 50.8584C17.8407 52.064 16.7237 52.458 15.6461 51.9659L10.5217 49.6256L9.9747 50.8234L15.196 53.2079C16.8628 53.9691 18.6151 53.2609 19.4843 51.3576C20.3535 49.4544 19.743 47.6624 18.0762 46.9012L12.8549 44.5167L12.3061 45.7184Z" fill="black"/>
<path d="M23.9218 42.9252L24.6856 41.8526L21.9954 39.937L23.0336 38.479C23.0509 38.4548 23.0657 38.4339 23.083 38.4096L26.8015 38.8813L27.6716 37.6594L23.6717 37.1862C23.9693 36.085 23.5528 35.1345 22.5983 34.4548C21.2896 33.5229 19.7913 33.6801 18.6172 35.3289L16.8128 37.8629L23.9218 42.9252ZM21.0721 39.2794L18.4964 37.4453L19.4555 36.0985C20.2094 35.0398 21.0242 34.9608 21.8295 35.5343C22.6314 36.1053 22.7851 36.8739 22.041 37.9187L21.0721 39.2794Z" fill="black"/>
<path d="M32.1521 32.6192L36.1491 28.8081L35.3668 27.9877L32.3228 30.8902L30.479 28.9565L33.2794 26.2863L32.5001 25.469L29.6998 28.1392L27.8648 26.2147L30.8718 23.3475L30.0895 22.5272L26.1296 26.303L32.1521 32.6192Z" fill="black"/>
<path d="M44.1977 22.8196C46.4347 21.382 46.8372 19.163 45.3628 16.8686C43.8952 14.5851 41.7164 14.0402 39.5547 15.4294L37.1026 17.0052L41.8209 24.3471L44.1977 22.8196ZM42.3066 22.6673L38.8324 17.2613L40.1086 16.4411C41.7147 15.409 43.1602 15.8375 44.273 17.569C45.3903 19.3077 45.1889 20.815 43.5147 21.8909L42.3066 22.6673Z" fill="black"/>
<path d="M68.3218 11.5603C69.3386 11.3643 70.004 10.3811 69.8081 9.36434C69.6121 8.34754 68.6289 7.6821 67.6121 7.87807C66.5953 8.07404 65.9298 9.05723 66.1258 10.074C66.3218 11.0908 67.305 11.7563 68.3218 11.5603Z" fill="black"/>
</svg>
