<svg width="800" height="953" viewBox="0 0 800 953" fill="none" xmlns="http://www.w3.org/2000/svg">
<g clip-path="url(#clip0)">
<path fill-rule="evenodd" clip-rule="evenodd" d="M324.449 202.786C311.861 214.556 298.571 221.776 291.546 221.475C273.937 220.72 259.419 159.965 267.218 133.139C275.02 106.313 339.202 81.7009 352.69 128.699C357.372 145.011 353.561 161.267 345.851 175.509L382.518 257.448L329.014 268.819L324.449 202.786Z" fill="#B28B67"/>
<path fill-rule="evenodd" clip-rule="evenodd" d="M355.763 127.776C357.003 127.652 358.247 127.458 359.494 127.194C377.962 123.268 389.753 105.113 385.826 86.6445C381.901 68.1757 363.747 56.386 345.279 60.3117C326.968 64.2035 315.223 82.0804 318.847 100.384C289.99 96.7856 257.42 115.081 266.728 135.915C272.438 148.698 288.873 152.508 305.643 156.396C306.423 156.577 307.205 156.758 307.984 156.94C309.468 152.36 313.365 148.649 318.509 147.556C326.09 145.945 333.507 150.627 335.077 158.015C335.642 160.676 335.373 163.325 334.441 165.7C340.807 169.232 345.791 174.051 348.26 181.151C356.918 179.311 365.509 150.914 355.763 127.776Z" fill="#191847"/>
<path fill-rule="evenodd" clip-rule="evenodd" d="M501.424 407.977L332.063 691.115L205.093 930.484H177.744L390.486 407.977H501.424Z" fill="#997659"/>
<path fill-rule="evenodd" clip-rule="evenodd" d="M215.497 916.887C217.94 915.813 220.842 916.9 221.752 919.41C223.412 923.984 225.639 930.847 225.639 934.715C225.639 940.88 223.585 952.707 223.585 952.707C216.433 952.707 95.0334 952.707 95.0334 952.707C95.0334 952.707 90.0224 936.141 100.818 934.82C111.614 933.5 118.755 932.435 118.755 932.435L178.505 905.798C179.678 905.274 181.051 905.823 181.54 907.011L185.381 916.328C185.381 916.328 195.375 920.992 201.623 920.992C205.427 920.992 211.403 918.687 215.497 916.887Z" fill="#E4E4E4"/>
<path fill-rule="evenodd" clip-rule="evenodd" d="M240.355 892.154L187.615 876.2C187.615 876.2 222.276 772.583 272.578 648.145C322.88 523.71 380.626 407.977 380.626 407.977H529.584C529.584 407.977 465.385 554.374 393.467 674.016C321.547 793.661 240.355 892.154 240.355 892.154Z" fill="#2733A8"/>
<path fill-rule="evenodd" clip-rule="evenodd" d="M512.553 407.977C528.537 507.473 559.366 634.591 562.276 638.516C564.216 641.13 634.044 664.528 771.76 708.71L765.852 732.827C601.627 709.132 515.092 690.748 506.254 677.677C492.993 658.069 426.782 503.163 401.137 407.977H512.553Z" fill="#B28B67"/>
<path fill-rule="evenodd" clip-rule="evenodd" d="M723.35 687.863L712.945 726.705C590.112 737.479 514.851 729.693 487.161 703.352C459.469 677.011 427.908 578.552 392.48 407.977H534.52C556.968 547.655 569.518 620.426 572.168 626.29C574.821 632.152 625.214 652.679 723.35 687.863Z" fill="#2C49F4"/>
<path fill-rule="evenodd" clip-rule="evenodd" d="M761.411 704.443C760.775 701.851 762.35 699.18 764.98 698.72C769.775 697.881 776.918 696.88 780.727 697.551C786.799 698.622 798.09 702.699 798.09 702.699C796.848 709.742 775.767 829.298 775.767 829.298C775.767 829.298 758.582 831.356 759.157 820.493C759.731 809.633 759.922 802.414 759.922 802.414L744.066 738.948C743.754 737.703 744.533 736.445 745.787 736.169L755.628 734.004C755.628 734.004 761.958 724.972 763.043 718.818C763.701 715.073 762.473 708.787 761.411 704.443Z" fill="#E4E4E4"/>
<path fill-rule="evenodd" clip-rule="evenodd" d="M164.93 423.706L253.342 402.915L252.718 446.341L174.173 445.484C145.903 459.661 131.427 464.417 130.746 459.752C130.171 455.818 132.875 453.525 135.365 451.415C137.305 449.769 139.115 448.235 139.145 446.12C139.215 441.288 126.331 436.272 113.905 432.039C101.479 427.804 107.244 423.934 111.261 422.526C126.646 420.415 144.536 420.809 164.93 423.706ZM652.868 473.174C641.775 462.918 524.72 321.056 524.72 321.056L478.195 339.116C478.195 339.116 621.032 482.159 627.437 489.033C635.758 497.965 634.409 516.098 633.493 528.395C633.351 530.296 633.221 532.06 633.137 533.625C641.123 534.059 642.981 529.117 644.941 523.907C647.154 518.022 649.495 511.793 660.939 512.584C665.36 512.889 669.702 513.589 673.944 514.275C688.597 516.639 702.058 518.811 713.483 503.827C715.293 501.452 715.779 494.938 707.84 493.042C688.064 488.317 658.29 478.188 652.868 473.174Z" fill="#997659"/>
<path fill-rule="evenodd" clip-rule="evenodd" d="M340.369 222.27L304.82 238.704C327.038 323.438 297.807 393.569 181.563 418.246L207.188 528.511C314.68 502.435 388.756 426.957 364.551 308.88C358.283 278.314 350.566 246.964 340.369 222.27Z" fill="#AFB9C5"/>
<path fill-rule="evenodd" clip-rule="evenodd" d="M638.384 454.545C561.322 329.499 467.838 245.759 357.933 203.32L354.432 204.664L354.314 204.71L354.298 204.755L303.882 238.632C329.37 305.027 333.641 360.31 337.748 413.458C339.524 436.41 341.265 458.963 344.673 481.841L493.954 424.54C505.327 447.883 516.148 472.214 526.608 497.451L638.384 454.545Z" fill="#C5CFD6"/>
<path fill-rule="evenodd" clip-rule="evenodd" d="M493.953 424.54C470.796 377.01 445.344 333.557 415.97 294.806C436.638 340.371 459.612 397.921 463.612 436.187L493.953 424.54Z" fill="black" fill-opacity="0.1"/>
<path fill-rule="evenodd" clip-rule="evenodd" d="M49.856 148.148L210.495 214.687L169.913 312.766L159.204 308.331L149.928 330.749L137.786 299.46L9.27441 246.229L49.856 148.148Z" fill="#2C49F4"/>
</g>
<defs>
<clipPath id="clip0">
<rect width="800" height="952.707" fill="white"/>
</clipPath>
</defs>
</svg>
