<svg width="800" height="883" viewBox="0 0 800 883" fill="none" xmlns="http://www.w3.org/2000/svg">
<g clip-path="url(#clip0)">
<path fill-rule="evenodd" clip-rule="evenodd" d="M317.921 168.723C331.274 176.719 344.394 180.582 350.554 179.005C365.998 175.051 367.417 118.923 355.469 96.7958C343.518 74.6686 282.087 65.0241 278.991 108.865C277.916 124.081 284.347 137.66 293.848 148.741L276.812 227.634H326.302L317.921 168.723Z" fill="#B28B67"/>
<path fill-rule="evenodd" clip-rule="evenodd" d="M327.258 71.2946C320.736 70.232 303.173 69.5014 299.935 69.5018C297.864 69.5018 295.621 69.9716 294.397 68.0836C293.392 66.5374 293.761 63.9226 293.46 62.1285C293.112 60.0441 292.618 57.9867 292.119 55.9346C290.695 50.0949 288.545 44.5392 285.536 39.3232C279.889 29.5371 271.617 21.8717 261.174 17.4113C249.642 12.4862 236.591 11.3585 224.186 12.3574C210.912 13.4262 198.896 17.7796 186.362 21.8764C174.418 25.7804 161.908 27.317 149.416 25.4107C136.83 23.4899 127.32 16.7132 116.704 10.2812C105.837 3.69634 93.4167 -0.610382 80.569 0.379632C68.5761 1.30409 57.5228 6.22351 47.6059 12.7951C38.3273 18.9438 30.6716 26.3411 26.3492 36.7526C21.6994 47.9523 21.7035 60.2455 29.35 70.1432C40.4332 84.4902 61.0087 88.2003 78.1267 87.8314C88.0281 87.6188 97.7524 85.8232 107.1 82.5569C119.567 78.2006 130.34 70.8173 142.003 64.8268C147.477 62.0157 153.134 59.707 159.064 58.0437C164.819 56.4293 170.487 55.6887 175.697 59.1422C181.209 62.7958 186.149 66.3847 192.454 68.6717C198.504 70.866 204.911 72.0931 211.355 72.0436C223.895 71.9473 236.255 68.0662 248.434 65.4662C258.364 63.3467 268.99 61.2341 279.115 63.2716C283.341 64.1221 289.511 65.8775 291.038 70.2395C265.354 74.8636 255.268 106.418 262.508 129.581C266.417 142.084 289.906 156.699 299.038 150.126C304.824 145.962 301.312 140.496 299.038 136.887C294.684 129.976 293.196 121.099 301.252 116.288C308.201 112.138 315.506 121.992 315.645 121.981C317.555 121.832 334.058 112.56 345.427 99.0303C356.643 99.6909 358.345 92.3435 355.667 86.3348C352.988 80.326 336.272 72.7639 327.258 71.2946Z" fill="black"/>
<path fill-rule="evenodd" clip-rule="evenodd" d="M240.063 390.338C243.774 440.929 482.839 589.879 484.235 594.057C485.164 596.844 409.822 770.201 409.822 770.201L430.72 778.312C430.72 778.312 546.281 594.715 540.346 575.152C531.848 547.143 354.859 390.875 354.859 390.875L240.063 390.338Z" fill="#B28B67"/>
<path fill-rule="evenodd" clip-rule="evenodd" d="M415.322 744.099L449.439 756.506C521.385 675.421 549.585 608.518 544.444 574.43C539.302 540.342 359.595 390.461 359.595 390.461H237.616C241.778 507.624 463.362 594.503 466.325 599.496C469.29 604.489 440.122 653.388 415.322 744.099Z" fill="#AFB9C5"/>
<path fill-rule="evenodd" clip-rule="evenodd" d="M407.909 765.649C406.376 764.166 403.9 764.191 402.522 765.82C399.694 769.17 395.41 774.579 394.169 777.986C392.264 783.211 390.354 793.87 390.354 793.87C396.423 796.076 499.433 833.527 499.433 833.527C499.433 833.527 508.802 821.031 500.049 816.581C491.297 812.131 485.565 809.026 485.565 809.026L442.918 767.849C442.18 767.136 440.999 767.174 440.306 767.931L434.006 774.821C434.006 774.821 424.086 775.69 418.785 773.764C415.417 772.539 410.817 768.461 407.909 765.649Z" fill="#AFB9C5"/>
<path fill-rule="evenodd" clip-rule="evenodd" d="M267.55 390.338L161.052 645.72L56.3818 861.625H81.0771L351.26 390.338H267.55Z" fill="#997659"/>
<path fill-rule="evenodd" clip-rule="evenodd" d="M60.1386 849.151C58.1911 848.282 55.8729 849.151 55.1373 851.154C53.6256 855.267 51.4521 861.813 51.4521 865.439C51.4521 871.001 53.3069 881.669 53.3069 881.669C59.765 881.669 169.386 881.669 169.386 881.669C169.386 881.669 173.911 866.726 164.162 865.536C154.414 864.344 147.966 863.384 147.966 863.384L93.7906 839.26C92.8532 838.842 91.7563 839.28 91.3649 840.229L87.8044 848.856C87.8044 848.856 78.7797 853.062 73.1374 853.062C69.5535 853.062 63.8343 850.801 60.1386 849.151Z" fill="#AFB9C5"/>
<path fill-rule="evenodd" clip-rule="evenodd" d="M65.835 816.774L120.708 827.052C163.135 764.747 340.696 509.268 360.164 390.338H238.004C172.991 476.313 106.277 753.436 65.835 816.774Z" fill="#C5CFD6"/>
<path fill-rule="evenodd" clip-rule="evenodd" d="M512.891 160.471L434.992 183.887L454.881 217.06L515.448 181.37C543.721 179.684 557.079 176.892 555.524 172.994C554.212 169.707 551.091 169.147 548.215 168.631C545.974 168.23 543.883 167.855 542.914 166.238C540.702 162.547 548.459 152.938 556.21 144.134C563.96 135.33 557.757 134.92 554.012 135.626C541.13 140.863 527.422 149.144 512.891 160.471ZM493.666 369.602L428.109 321.401L413.618 357.27L478.535 384.224C496.895 405.819 507.162 414.821 509.334 411.231C511.165 408.204 509.735 405.37 508.415 402.759C507.388 400.727 506.427 398.828 507.134 397.081C508.747 393.09 521.079 393.511 532.765 394.411C544.452 395.309 541.046 390.103 538.229 387.532C526.3 380.383 511.444 374.405 493.666 369.602Z" fill="#B28B67"/>
<path fill-rule="evenodd" clip-rule="evenodd" d="M326.285 191.595C361.984 258.245 413.607 309.338 488.446 362.449L460.109 394.442C376.548 363.349 332.448 344.589 310.79 281.618C305.356 265.813 301.556 215.431 298.298 188.924L326.285 191.595Z" fill="#2733A8"/>
<path fill-rule="evenodd" clip-rule="evenodd" d="M226.487 413.657H384.732C384.732 413.657 330.965 249.462 329.798 188.272C329.758 186.193 325.922 182.528 324.226 183.007C305.609 188.272 284.384 179.07 284.384 179.07C246.868 239.483 233.895 313.863 226.487 413.657Z" fill="#F2F2F2"/>
<path fill-rule="evenodd" clip-rule="evenodd" d="M324.078 271.24C348.793 377.392 347.654 464.289 293.088 464.289H208.712C195.311 374.113 230.531 249.082 263.184 186.019C264.43 183.61 267.085 179.071 273.338 179.071H297.855C297.866 179.103 297.877 179.136 297.888 179.168C305.265 179.229 313.39 179.499 322.189 179.791C367.486 181.297 430.646 183.396 501.717 160.551L510.096 202.474C445.948 243.783 380.993 275.783 324.078 271.24Z" fill="#2C49F4"/>
<path fill-rule="evenodd" clip-rule="evenodd" d="M708.884 156.719C658.562 156.719 617.768 197.513 617.768 247.835C617.768 298.157 658.562 338.951 708.884 338.951C759.205 338.951 800 298.157 800 247.835C800 197.513 759.205 156.719 708.884 156.719ZM678.209 227.6C678.209 223.846 681.25 220.804 685.004 220.804C688.756 220.804 691.799 223.846 691.799 227.6C691.799 231.352 688.756 234.395 685.004 234.395C681.25 234.395 678.209 231.352 678.209 227.6ZM685.004 213.515C677.225 213.515 670.919 219.82 670.919 227.6C670.919 235.378 677.225 241.685 685.004 241.685C692.783 241.685 699.089 235.378 699.089 227.6C699.089 219.82 692.783 213.515 685.004 213.515ZM739.783 223.913C741.206 222.49 741.206 220.181 739.783 218.758C738.36 217.335 736.051 217.335 734.628 218.758L676.162 277.225C674.739 278.649 674.739 280.956 676.162 282.379C677.585 283.802 679.892 283.802 681.316 282.379L739.783 223.913ZM730.941 266.742C727.189 266.742 724.146 269.785 724.146 273.537C724.146 277.291 727.189 280.332 730.941 280.332C734.695 280.332 737.737 277.291 737.737 273.537C737.737 269.785 734.695 266.742 730.941 266.742ZM716.856 273.537C716.856 265.757 723.162 259.452 730.941 259.452C738.721 259.452 745.026 265.757 745.026 273.537C745.026 281.316 738.721 287.622 730.941 287.622C723.162 287.622 716.856 281.316 716.856 273.537Z" fill="#2C49F4"/>
</g>
<defs>
<clipPath id="clip0">
<rect width="800" height="882.005" fill="white"/>
</clipPath>
</defs>
</svg>
