<svg id="Payment_Icons" data-name="Payment Icons" xmlns="http://www.w3.org/2000/svg" viewBox="0 0 38 38"><defs><style>.cls-1{fill:#fff;}.cls-2{fill:#f7f7f7;}.cls-3{fill:#f79e1b;}.cls-4{fill:#ff5f00;}.cls-5{fill:#eb001b;}</style></defs><title>mastercard-color</title><rect class="cls-1" x="0.5" y="7.5" width="37" height="23" rx="4.5"/><path class="cls-2" d="M33,8a4,4,0,0,1,4,4V26a4,4,0,0,1-4,4H5a4,4,0,0,1-4-4V12A4,4,0,0,1,5,8H33m0-1H5a5,5,0,0,0-5,5V26a5,5,0,0,0,5,5H33a5,5,0,0,0,5-5V12a5,5,0,0,0-5-5Z"/><path class="cls-3" d="M27.31,19A4.75,4.75,0,0,1,19,22.14a4.74,4.74,0,0,0,0-6.28A4.75,4.75,0,0,1,27.31,19Z"/><ellipse class="cls-4" cx="19" cy="19" rx="1.19" ry="3.14"/><path class="cls-5" d="M17.81,19A4.76,4.76,0,0,0,19,22.14a4.75,4.75,0,1,1,0-6.28A4.76,4.76,0,0,0,17.81,19Z"/></svg>