<svg width="3553" height="3553" viewBox="0 0 3553 3553" fill="none" xmlns="http://www.w3.org/2000/svg">
<path d="M1770.05 1723.93L1808.69 1734.29C1824.43 1738.5 1833.76 1754.68 1829.55 1770.42L1819.2 1809.05C1814.98 1824.79 1798.8 1834.13 1783.07 1829.91L1744.43 1819.56C1728.69 1815.34 1719.35 1799.17 1723.57 1783.43L1733.92 1744.79C1738.14 1729.06 1754.31 1719.72 1770.05 1723.93Z" stroke="white" stroke-opacity="0.15"/>
<path d="M1753.23 1666.55L1835.96 1681.13C1869.95 1687.13 1892.65 1719.54 1886.65 1753.54L1872.07 1836.26C1866.07 1870.25 1833.66 1892.95 1799.66 1886.96L1716.94 1872.37C1682.95 1866.38 1660.25 1833.96 1666.24 1799.97L1680.83 1717.24C1686.82 1683.25 1719.24 1660.55 1753.23 1666.55Z" stroke="white" stroke-opacity="0.15"/>
<path d="M1725.59 1607.37L1857.09 1618.88C1911.28 1623.62 1951.37 1671.4 1946.63 1725.59L1935.12 1857.09C1930.38 1911.28 1882.6 1951.37 1828.41 1946.63L1696.91 1935.12C1642.72 1930.38 1602.63 1882.6 1607.37 1828.41L1618.88 1696.91C1623.62 1642.72 1671.4 1602.63 1725.59 1607.37Z" stroke="white" stroke-opacity="0.15"/>
<path d="M1684.17 1546.58H1868.17C1944.11 1546.58 2005.67 1608.14 2005.67 1684.08V1868.08C2005.67 1944.02 1944.11 2005.58 1868.17 2005.58H1684.17C1608.23 2005.58 1546.67 1944.02 1546.67 1868.08V1684.08C1546.67 1608.14 1608.23 1546.58 1684.17 1546.58Z" stroke="white" stroke-opacity="0.15"/>
<path d="M1630.89 1488.45L1869.98 1467.53C1968.74 1458.89 2055.8 1531.94 2064.44 1630.7L2085.36 1869.79C2094 1968.55 2020.94 2055.61 1922.18 2064.25L1683.1 2085.17C1584.34 2093.81 1497.28 2020.75 1488.64 1921.99L1467.72 1682.91C1459.08 1584.15 1532.13 1497.09 1630.89 1488.45Z" stroke="white" stroke-opacity="0.15"/>
<path d="M1563.53 1433.4L1858.97 1381.31C1981.07 1359.78 2097.51 1441.31 2119.04 1563.41L2171.14 1858.85C2192.67 1980.96 2111.14 2097.4 1989.03 2118.93L1693.59 2171.02C1571.49 2192.55 1455.05 2111.02 1433.52 1988.92L1381.42 1693.47C1359.89 1571.37 1441.42 1454.93 1563.53 1433.4Z" stroke="white" stroke-opacity="0.1"/>
<path d="M1482.83 1384.83L1834.42 1290.62C1979.79 1251.66 2129.22 1337.93 2168.17 1483.3L2262.38 1834.9C2301.33 1980.27 2215.06 2129.69 2069.69 2168.64L1718.09 2262.85C1572.72 2301.8 1423.3 2215.53 1384.35 2070.17L1290.14 1718.57C1251.19 1573.2 1337.46 1423.78 1482.83 1384.83Z" stroke="white" stroke-opacity="0.1"/>
<path d="M1388.87 1343.75L1794.82 1196C1962.71 1134.89 2148.34 1221.45 2209.45 1389.34L2357.2 1795.29C2418.31 1963.18 2331.75 2148.82 2163.86 2209.93L1757.91 2357.68C1590.02 2418.78 1404.38 2332.22 1343.27 2164.33L1195.52 1758.38C1134.41 1590.49 1220.98 1404.86 1388.87 1343.75Z" stroke="white" stroke-opacity="0.1"/>
<path d="M1282.16 1312.46L1738.94 1099.46C1927.89 1011.35 2152.5 1093.1 2240.61 1282.05L2453.61 1738.83C2541.72 1927.78 2459.97 2152.39 2271.02 2240.5L1814.24 2453.5C1625.28 2541.61 1400.68 2459.86 1312.57 2270.91L1099.57 1814.13C1011.46 1625.17 1093.21 1400.57 1282.16 1312.46Z" stroke="white" stroke-opacity="0.1"/>
<path d="M1163.54 1294.22L1665.84 1004.22C1873.66 884.233 2139.39 955.437 2259.38 1163.26L2549.38 1665.55C2669.36 1873.37 2598.16 2139.1 2390.34 2259.09L1888.04 2549.09C1680.23 2669.07 1414.49 2597.87 1294.51 2390.05L1004.51 1887.76C884.521 1679.94 955.725 1414.2 1163.54 1294.22Z" stroke="white" stroke-opacity="0.1"/>
<path d="M1033.18 1290.25L1573.82 911.692C1797.54 755.046 2105.88 809.415 2262.53 1033.13L2641.09 1573.77C2797.73 1797.48 2743.36 2105.83 2519.65 2262.47L1979.01 2641.03C1755.29 2797.68 1446.95 2743.31 1290.3 2519.6L911.744 1978.96C755.098 1755.24 809.467 1446.9 1033.18 1290.25Z" stroke="white" stroke-opacity="0.05"/>
<path d="M894.573 1303.69L1464.51 825.454C1700.37 627.541 2052.02 658.306 2249.93 894.17L2728.17 1464.11C2926.08 1699.97 2895.32 2051.62 2659.45 2249.53L2089.52 2727.76C1853.65 2925.68 1502 2894.91 1304.09 2659.05L825.857 2089.11C627.944 1853.25 658.709 1501.6 894.573 1303.69Z" stroke="white" stroke-opacity="0.05"/>
<path d="M747.541 1335.51L1335.85 747.197C1579.35 503.705 1974.12 503.705 2217.62 747.197L2805.93 1335.51C3049.42 1579 3049.42 1973.78 2805.93 2217.27L2217.62 2805.59C1974.12 3049.08 1579.35 3049.08 1335.85 2805.59L747.541 2217.27C504.049 1973.78 504.049 1579 747.541 1335.51Z" stroke="white" stroke-opacity="0.05"/>
<path d="M595.214 1388.52L1189.15 680.697C1434.99 387.718 1871.79 349.503 2164.77 595.342L2872.59 1189.28C3165.57 1435.12 3203.79 1871.91 2957.95 2164.89L2364.01 2872.72C2118.17 3165.7 1681.37 3203.91 1388.39 2958.07L680.569 2364.14C387.59 2118.3 349.375 1681.5 595.214 1388.52Z" stroke="white" stroke-opacity="0.05"/>
<path d="M440.017 1463.31L1025.06 627.77C1267.24 281.907 1743.94 197.852 2089.81 440.028L2925.34 1025.08C3271.2 1267.25 3355.26 1743.95 3113.08 2089.82L2528.04 2925.35C2285.86 3271.22 1809.16 3355.27 1463.29 3113.09L627.759 2528.05C281.896 2285.87 197.84 1809.17 440.017 1463.31Z" stroke="white" stroke-opacity="0.05"/>
</svg>
